<?xml version="1.0" encoding="utf-8" ?>
<svg baseProfile="full" height="200mm" version="1.1" viewBox="0,0,200,200" width="200mm" xmlns="http://www.w3.org/2000/svg" xmlns:ev="http://www.w3.org/2001/xml-events" xmlns:xlink="http://www.w3.org/1999/xlink"><defs /><rect fill="#1a1a1a" height="200" width="200" x="0" y="0" /><text alignment-baseline="middle" fill="#e1ed5e" style="dominant-baseline: central; font-size:9.0px; font-family:Arial;" text-anchor="middle" x="100.0" y="100.0">2020</text><line stroke="#e1ed5e" stroke-width="0.3" x1="100.0" x2="100.0" y1="15.0" y2="10.0" /><path d="M 100.0 14.0 a86.0,86.0 0 0,1 42.35913384403234,11.155469271406648" fill="none" id="id25" stroke="none" /><text fill="#e1ed5e" style="font-size:6.75px; font-family:Arial;" text-anchor="middle"><textPath startOffset="22.145653131862478" xlink:href="#id25">January</textPath></text><path d="M 102.15924093988457 79.11130261209362 l 2.7228766141395817 -26.341361247258238 a47.48171764471456,47.48171764471456 0 0,0 0.810047369639486,0.09076749736522899 l -3.1746598853798647 26.290737989386038" fill="#dcff1b" stroke="none" /><path d="M 103.58742460773223 79.30868818359171 l 4.3040517212624785 -24.824626571006142 a46.194978579256755,46.194978579256755 0 0,0 0.7801787803054984,0.14217456289422847 l -4.72956523511903 24.74708383418055" fill="#edff1a" stroke="none" /><path d="M 106.04205211174951 79.88797359093562 l 7.969585325042512 -26.52815757991465 a48.69941217495267,48.69941217495267 0 0,0 0.7985761312423967,0.2474009267921183 l -8.423802089156538 26.387440065315886" fill="#cdff1d" stroke="none" /><path d="M 109.71004243097381 81.37971332152246 l 12.65391601047499 -24.265552431452253 a48.366743050712365,48.366743050712365 0 0,0 0.7328970753673512,0.3902264120411753 l -13.0686019016289 24.044755551688503" fill="#d1ff1c" stroke="none" /><line stroke="#e1ed5e" stroke-width="0.3" x1="143.13028292997686" x2="145.6673583964461" y1="26.7553504044142" y2="22.446841604673864" /><path d="M 143.63769802327073 25.89364864446614 a86.0,86.0 0 0,1 29.32050498858742,28.57503671076993" fill="none" id="id26" stroke="none" /><text fill="#e1ed5e" style="font-size:6.75px; font-family:Arial;" text-anchor="middle"><textPath startOffset="20.669276256404974" xlink:href="#id26">February</textPath></text><path d="M 112.45986205192187 83.09580414077388 l 16.043763789881265 -21.76644687502623 a48.04035070240111,48.04035070240111 0 0,0 0.6596329303198061,0.4950008483601628 l -16.415049709111837 21.487826999402053" fill="#d5ff1c" stroke="none" /><path d="M 114.39649973595853 84.71141617570332 l 4.991513308870745 -5.30081415846891 a28.281060077712464,28.281060077712464 0 0,0 0.3505875270059357,0.3358549202609817 l -5.081773321741993 5.214347107902348" fill="#ff0e01" stroke="none" /><path d="M 116.35404254752997 86.82634096563983 l 9.820246531230763 -7.910495466781786 a33.610042841486504,33.610042841486504 0 0,0 0.35808070720075635,0.45242327597435583 l -9.954593669073079 7.740752246892751" fill="#ff6008" stroke="none" /><path d="M 117.21940702142032 87.97951657250589 l 17.03069179053896 -11.888745539975497 a41.76985154926771,41.76985154926771 0 0,0 0.4053868779733837,0.5914715700967966 l -17.23226840532767 11.594639234808652" fill="#ffd614" stroke="none" /><line stroke="#e1ed5e" stroke-width="0.3" x1="172.87174338648825" x2="177.1583165268699" y1="56.24261187166439" y2="53.66864786411523" /><path d="M 173.72905801456457 55.72781907015455 a86.0,86.0 0 0,1 12.242430191666344,42.057860355516425" fill="none" id="id27" stroke="none" /><text fill="#e1ed5e" style="font-size:6.75px; font-family:Arial;" text-anchor="middle"><textPath startOffset="22.145653131862474" xlink:href="#id27">March</textPath></text><path d="M 118.70294669586156 90.45014215332178 l 18.945188707464816 -9.67354834384552 a42.27199362359271,42.27199362359271 0 0,0 0.3244477905220749,0.6491129200027485 l -19.108456411198627 9.346903567679021" fill="#ffdd14" stroke="none" /><path d="M 119.4528033332814 92.08871423366111 l 19.239611307112128 -7.824582425271112 a41.76985154926771,41.76985154926771 0 0,0 0.26442568625847285,0.6665254650142854 l -19.371095668336725 7.493155943043261" fill="#ffd614" stroke="none" /><path d="M 120.05942366710727 93.78553927170692 l 28.06560591383753 -8.694796453862674 a50.38158812394141,50.38158812394141 0 0,0 0.24884589163222612,0.8283270405036742 l -28.21072812547338 8.211731809768276" fill="#b7ff1f" stroke="none" /><path d="M 120.51834098615036 95.52812308129327 l 9.242146019566187 -2.0142827089242936 a30.45910132509714,30.45910132509714 0 0,0 0.10695827894977264,0.5118340841075104 l -9.275362009340325 1.8553321735313788" fill="#ff3004" stroke="none" /><path d="M 120.86939407059847 97.66154086499901 l 12.313295973506436 -1.379730496909019 a33.39035568396931,33.39035568396931 0 0,0 0.05893812378052119,0.570172883220753 l -12.335166489768623 1.1681530914053344" fill="#ff5d08" stroke="none" /><line stroke="#e1ed5e" stroke-width="0.3" x1="184.99686870605535" x2="189.99668451229388" y1="99.2704041080226" y2="99.22748670261217" /><path d="M 185.99683186730306 99.26182062694052 a86.0,86.0 0 0,1 -10.086455211305974,41.156179273409016" fill="none" id="id28" stroke="none" /><text fill="#e1ed5e" style="font-size:6.75px; font-family:Arial;" text-anchor="middle"><textPath startOffset="21.40746469413373" xlink:href="#id28">April</textPath></text><path d="M 120.65975698304385 103.76489593502545 l 12.492185426929671 2.2764923213778476 a33.69791770449338,33.69791770449338 0 0,0 -0.10859347778255887,0.5682069629942649 l -12.451265656864955 -2.4906018494054267" fill="#ff6109" stroke="none" /><path d="M 120.16314734710363 105.8691983318838 l 11.643479328864467 3.3892471387464864 a33.12673109494869,33.12673109494869 0 0,0 -0.1636203074008699,0.5446387887165562 l -11.583582701459969 -3.588623531053766" fill="#ff5908" stroke="none" /><path d="M 118.5362547648365 109.86951160357373 l 13.579464111372195 7.230299772947848 a36.38437780213211,36.38437780213211 0 0,0 -0.2982733257137845,0.5487893240885372 l -13.45334543604307 -7.462343930510989" fill="#ff890c" stroke="none" /><line stroke="#e1ed5e" stroke-width="0.3" x1="174.33088141563837" x2="178.70328620479359" y1="141.23008692659167" y2="143.65538615756765" /><path d="M 175.20536237346943 141.71514677278685 a86.0,86.0 0 0,1 -30.301960400862466,31.631185727798858" fill="none" id="id29" stroke="none" /><text fill="#e1ed5e" style="font-size:6.75px; font-family:Arial;" text-anchor="middle"><textPath startOffset="22.145653131862474" xlink:href="#id29">May</textPath></text><path d="M 118.00360718960297 110.81064883170644 l 13.899566814011507 8.346290504821487 a37.21291222476836,37.21291222476836 0 0,0 -0.33355534364811923,0.5448375861919527 l -13.754243505907983 -8.583665207137997" fill="#ff950d" stroke="none" /><path d="M 117.01052211995028 112.31430620078461 l 10.189026500462395 7.376069431016942 a33.578658961841185,33.578658961841185 0 0,0 -0.34201939700101053,0.4640149987589668 l -10.060905083877557 -7.5498907390447885" fill="#ff6008" stroke="none" /><path d="M 115.16444852881244 114.52719865689866 l 5.371088424820984 5.145381212042913 a28.437979475939024,28.437979475939024 0 0,0 -0.34073195165470055,0.3496209992443274 l -5.281969672015476 -5.236824903354978" fill="#ff1001" stroke="none" /><path d="M 113.59037401385872 116.0094264158162 l 8.306958710274314 9.78557647315257 a33.83600677493275,33.83600677493275 0 0,0 -0.44603214784635187,0.37209588141648253 l -8.137752228266066 -9.926734538480924" fill="#ff6309" stroke="none" /><path d="M 112.45986205192187 116.90419585922612 l 7.1429756149007115 9.690818269800443 a33.038856231941814,33.038856231941814 0 0,0 -0.45942730548816113,0.3325899391499193 l -6.975567299038582 -9.812008980323439" fill="#ff5708" stroke="none" /><line stroke="#e1ed5e" stroke-width="0.3" x1="143.1302829299769" x2="145.66735839644613" y1="173.24464959558577" y2="177.55315839532614" /><path d="M 143.63769802327073 174.10635135553383 a86.0,86.0 0 0,1 -40.68552437913181,11.842963189579606" fill="none" id="id30" stroke="none" /><text fill="#e1ed5e" style="font-size:6.75px; font-family:Arial;" text-anchor="middle"><textPath startOffset="21.407464694133747" xlink:href="#id30">June</textPath></text><path d="M 110.02825361518725 118.45085714620011 l 3.0723204011856935 5.652723495523098 a27.43369532728903,27.43369532728903 0 0,0 -0.41570041321178713,0.22133705561638756 l -2.974831172187353 -5.704631018862054" fill="#ff0000" stroke="none" /><path d="M 109.3889696526874 118.78422872680471 l 3.013974317122523 6.02996761559876 a27.74125734781309,27.74125734781309 0 0,0 -0.4277962792701227,0.20925659733594837 l -2.910017788590331 -6.080817963031931" fill="#ff0500" stroke="none" /><path d="M 109.06512990194946 118.94263497670748 l 3.1674215967058648 6.618692922517999 a28.337551061074027,28.337551061074027 0 0,0 -0.44059667822300685,0.2062214924388456 l -3.0533362046113517 -6.672090646527378" fill="#ff0e01" stroke="none" /><line stroke="#e1ed5e" stroke-width="0.3" x1="101.45913802915013" x2="101.54496967792366" y1="184.9874750549273" y2="189.98673829345242" /><path d="M 101.47630435890484 185.9873277026323 a86.0,86.0 0 0,1 -42.54439059252881,-10.42667462771756" fill="none" id="id31" stroke="none" /><text fill="#e1ed5e" style="font-size:6.75px; font-family:Arial;" text-anchor="middle"><textPath startOffset="22.145653131862474" xlink:href="#id31">July</textPath></text><path d="M 99.27912038922189 120.98762331915562 l -0.26049918783423226 7.584149624248022 a28.588622098236524,28.588622098236524 0 0,0 -0.4903278676048759,-0.021056788385919907 l 0.3906528160399469 -7.5785602674362735" fill="#ff1202" stroke="none" /><path d="M 97.12497278360702 120.80226474461374 l -3.836902417413959 27.761914541606156 a49.02580452326392,49.02580452326392 0 0,0 -0.8326796976587354,-0.12237524065563288 l 4.31290722068038 -27.691958227651643" fill="#c8ff1d" stroke="none" /><path d="M 92.93061703081489 119.77432235084164 l -7.015149384585401 19.622621362397407 a41.838896084487395,41.838896084487395 0 0,0 -0.6742255389431687,-0.24758495689674553 l 7.350964075182689 -19.499305556491944" fill="#ffd714" stroke="none" /><line stroke="#e1ed5e" stroke-width="0.3" x1="58.13341422392154" x2="55.67067388415222" y1="173.97424548756322" y2="178.32567169271397" /><path d="M 57.64086615596768 174.84453072859336 a86.0,86.0 0 0,1 -31.369924170532247,-30.572349798747897" fill="none" id="id32" stroke="none" /><text fill="#e1ed5e" style="font-size:6.75px; font-family:Arial;" text-anchor="middle"><textPath startOffset="22.145653131862474" xlink:href="#id32">August</textPath></text><path d="M 88.1277618465304 117.32195027204791 l -4.095017284777497 5.9747525995646 a28.24339942213809,28.24339942213809 0 0,0 -0.3975660719582884,-0.27753199476402945 l 4.196978447909551 -5.903575788995442" fill="#ff0d01" stroke="none" /><path d="M 87.2517909369889 116.68781488649013 l -6.016565341385236 7.875877166215375 a30.911029191989638,30.911029191989638 0 0,0 -0.4189034051966859,-0.32574182159553666 l 6.15087869121715 -7.771434292999046" fill="#ff3705" stroke="none" /><path d="M 86.68645165197938 116.24036423190432 l -13.016424224282785 15.87792111265091 a41.531334063963335,41.531334063963335 0 0,0 -0.5474732954953103,-0.4567216946646783 l 13.287071853939988 -15.652137234074361" fill="#ffd213" stroke="none" /><path d="M 86.40962598614128 116.0094264158162 l -13.376437668916042 15.757409939409007 a41.669423134402706,41.669423134402706 0 0,0 -0.541346366548055,-0.46760209802058283 l 13.64496351522696 -15.525463708923702" fill="#ffd413" stroke="none" /><path d="M 85.86807049272751 115.53346607816431 l -14.061530336667367 15.456085057549757 a41.89538706784896,41.89538706784896 0 0,0 -0.5278224827347933,-0.4885446100872051 l 14.324782590716127 -15.212422701330174" fill="#ffd714" stroke="none" /><path d="M 85.08716467003676 114.78537596483092 l -14.678081122318112 14.552628191348477 a41.669423134402706,41.669423134402706 0 0,0 -0.4992655642403585,-0.5122904518062114 l 14.92573348770928 -14.29851504747453" fill="#ffd413" stroke="none" /><path d="M 84.58840730492382 114.26474011684316 l -15.344031663036397 14.202206634214766 a41.907940619707084,41.907940619707084 0 0,0 -0.48414108320585303,-0.5321558594779106 l 15.585570447084129 -13.93671319917918" fill="#ffd814" stroke="none" /><path d="M 84.3458050057657 113.99807769240083 l -15.510707304738483 13.869770115664661 a41.807512204842084,41.807512204842084 0 0,0 -0.47379644515088215,-0.5390933809678788 l 15.746514813847957 -13.601464456885482" fill="#ffd614" stroke="none" /><path d="M 83.8745106332314 113.45245675266167 l -16.257230935770792 13.562360255074577 a42.171565208727706,42.171565208727706 0 0,0 -0.45897358886382145,-0.5598731503522099 l 16.487651343873246 -13.281284823023872" fill="#ffdb14" stroke="none" /><path d="M 82.576782715395 111.72311816256416 l -17.27392997898818 11.622671000864399 a41.82006575670021,41.82006575670021 0 0,0 -0.3956488108849771,-0.5990627270856679 l 17.47090322879388 -11.32442839543967" fill="#ffd614" stroke="none" /><path d="M 82.37810715431573 111.42229804090323 l -17.333959157660736 11.235662903042494 a41.65686958254459,41.65686958254459 0 0,0 -0.383803204117618,-0.6034023848906687 l 17.524280053404244 -10.936446843473155" fill="#ffd413" stroke="none" /><path d="M 81.99639281039703 110.81064883170644 l -17.75248583794965 10.659857675341112 a41.707083789977084,41.707083789977084 0 0,0 -0.36330105233368176,-0.6169646120590015 l 17.932860600413104 -10.35354189498855" fill="#ffd513" stroke="none" /><line stroke="#e1ed5e" stroke-width="0.3" x1="26.387840678322732" x2="22.057713659400548" y1="142.50000000000003" y2="145.00000000000006" /><path d="M 25.521815274538298 143.00000000000003 a86.0,86.0 0 0,1 -11.493303480769221,-40.785679425670985" fill="none" id="id33" stroke="none" /><text fill="#e1ed5e" style="font-size:6.75px; font-family:Arial;" text-anchor="middle"><textPath startOffset="21.40746469413373" xlink:href="#id33">September</textPath></text><path d="M 81.81346652052679 110.50000000000001 l -17.894809668554085 10.331573179236832 a41.66314635847365,41.66314635847365 0 0,0 -0.3522849857855229,-0.6224538145876449 l 18.069528019360988 -10.022862594550066" fill="#ffd413" stroke="none" /><path d="M 81.63589988554817 110.18625677009913 l -18.085994782440604 10.031996430450327 a41.68197668626084,41.68197668626084 0 0,0 -0.34170219636977217,-0.6286935545999082 l 18.255542328425708 -9.720048042375831" fill="#ffd413" stroke="none" /><path d="M 81.4637452351635 109.86951160357371 l -18.427294016492834 9.811496142319275 a41.87655674006177,41.87655674006177 0 0,0 -0.3324040051276667,-0.6374285089432475 l 18.593006090595452 -9.493721390271524" fill="#ffd714" stroke="none" /><path d="M 81.1358732173502 109.22738970284198 l -18.65738632772389 9.126262586441396 a41.76985154926771,41.76985154926771 0 0,0 -0.3095359663333982,-0.6468111197342085 l 18.811301552017202 -8.804638964642082" fill="#ffd614" stroke="none" /><path d="M 80.9802524753101 108.90220220490708 l -18.544111714318557 8.67958062939331 a41.47484308060177,41.47484308060177 0 0,0 -0.2962795609423357,-0.6474243106065779 l 18.690375740115947 -8.359967336572044" fill="#ffd213" stroke="none" /><path d="M 80.68587082218212 108.24405325689762 l -18.842677384596257 8.042818520627822 a41.4873966324599,41.4873966324599 0 0,0 -0.2739633185898205,-0.6574122317713293 l 18.977966547722563 -7.7181737794152125" fill="#ffd213" stroke="none" /><path d="M 80.5471966667186 107.91128576633889 l -19.32682622690864 7.860051973889757 a41.86400318820365,41.86400318820365 0 0,0 -0.265021716907723,-0.6680278516064334 l 19.45890661878249 -7.527123105069758" fill="#ffd714" stroke="none" /><path d="M 80.05021161711548 106.5578916946017 l -50.30280406436599 16.535530836602533 a73.950881737571,73.950881737571 0 0,0 -0.3860774256105338,-1.2093820368813153 l 50.57924620575378 -15.669579766029825" fill="#3fffc1" stroke="none" /><path d="M 79.17382384314188 102.69636545807758 l -20.641506466914883 2.672456269498435 a41.81378898077115,41.81378898077115 0 0,0 -0.08605260596798531,-0.712639022286128 l 20.68434115914253 -2.317723570288908" fill="#ffd614" stroke="none" /><path d="M 79.03789590574601 101.26102812881392 l -20.85767994314184 1.2547462311910533 a41.89538706784896,41.89538706784896 0 0,0 -0.03702437109909224,-0.7182629081821602 l 20.876145903697505 -0.8965115296321623" fill="#ffd714" stroke="none" /><line stroke="#e1ed5e" stroke-width="0.3" x1="15.003131293944662" x2="10.003315487706104" y1="100.72959589197737" y2="100.7725132973878" /><path d="M 14.003168132696942 100.73817937305945 a86.0,86.0 0 0,1 10.791469493833604,-42.45332614584628" fill="none" id="id34" stroke="none" /><text fill="#e1ed5e" style="font-size:6.75px; font-family:Arial;" text-anchor="middle"><textPath startOffset="22.145653131862435" xlink:href="#id34">October</textPath></text><path d="M 79.00077361379809 99.81974689727619 l -27.692115218468516 -0.2377035038011755 a48.69313539902362,48.69313539902362 0 0,0 0.014349561861536866,-0.8357900393197414 l 27.683954225008314 0.7130404590899693" fill="#cdff1d" stroke="none" /><path d="M 79.00696218219943 99.45929381324524 l -20.6374717692775 -0.5315480666244127 a41.64431603068646,41.64431603068646 0 0,0 0.024541021222943944,-0.7144850563032168 l 20.625306061057707 0.885739387491768" fill="#ffd413" stroke="none" /><path d="M 79.2786578344484 96.59031103205396 l -20.40753883695105 -3.3580527496409887 a41.68197668626084,41.68197668626084 0 0,0 0.12223772102418133,-0.7050346914572037 l 20.346886298434637 3.707880474018785" fill="#ffd413" stroke="none" /><path d="M 79.48165901384962 95.52812308129327 l -20.34866655137399 -4.434897165368807 a41.82634253262927,41.82634253262927 0 0,0 0.15891846832726753,-0.7002240938751905 l 20.269537221489063 4.783555593183006" fill="#ffd614" stroke="none" /><path d="M 79.83685265289637 94.1308016681162 l -26.75830653217301 -7.788953051777645 a48.868885125037366,48.868885125037366 0 0,0 0.24137431440422658,-0.8034565899104785 l 26.62065589776515 8.247147245278846" fill="#caff1d" stroke="none" /><path d="M 80.05021161711548 93.44210830539832 l -15.41999185756881 -5.068857603538893 a37.231742552555545,37.231742552555545 0 0,0 0.20480043071831874,-0.6054560827669915 l 15.330706005278126 5.332815360780046" fill="#ff950d" stroke="none" /><path d="M 80.16572619554312 93.10060997987247 l -22.59885974173249 -7.8610565179015985 a44.92706984158613,44.92706984158613 0 0,0 0.2596353122094657,-0.7262461773072106 l 22.46058425947908 8.24783765158973" fill="#feff18" stroke="none" /><path d="M 80.28708602549916 92.7611449362534 l -19.39081395538973 -7.120575475178858 a41.65686958254459,41.65686958254459 0 0,0 0.2522607437734961,-0.6691515932384752 l 19.2657225278018 7.4523953486114785" fill="#ffd413" stroke="none" /><path d="M 80.41425534168474 92.42381321644754 l -7.335141393903266 -2.8373902679459677 a28.864800239115272,28.864800239115272 0 0,0 0.18272975193456717,-0.46059834278384093 l 7.285352967002567 2.9628896279433916" fill="#ff1702" stroke="none" /><path d="M 80.83023694016515 91.42560881287825 l -25.08475321588831 -11.220091048287033 a48.479725017435484,48.479725017435484 0 0,0 0.34631961391289345,-0.7567708571389706 l 24.888449137120368 11.649050887640675" fill="#cfff1d" stroke="none" /><path d="M 81.46374523516351 90.13048839642627 l -24.338876312222787 -12.9590807435985 a48.573876656371425,48.573876656371425 0 0,0 0.39820089302879547,-0.7326447928716978 l 24.112830069578642 13.374980369944817" fill="#ceff1d" stroke="none" /><path d="M 81.63589988554816 89.8137432299009 l -24.217119569082854 -13.432827997313122 a48.69313539902362,48.69313539902362 0 0,0 0.4117274380649278,-0.727482932099584 l 23.982958765996557 13.846567699511812" fill="#cdff1d" stroke="none" /><line stroke="#e1ed5e" stroke-width="0.3" x1="26.387840678322718" x2="22.05771365940052" y1="57.49999999999999" y2="54.99999999999999" /><path d="M 25.521815274538284 56.99999999999999 a86.0,86.0 0 0,1 29.574782752854787,-30.34633250058573" fill="none" id="id35" stroke="none" /><text fill="#e1ed5e" style="font-size:6.75px; font-family:Arial;" text-anchor="middle"><textPath startOffset="21.40746469413373" xlink:href="#id35">November</textPath></text><path d="M 82.18462484594161 88.88188828441811 l -17.71065191662793 -11.052756670128133 a41.87655674006177,41.87655674006177 0 0,0 0.38582727927745475,-0.6065845672318801 l 17.51830694572459 11.355154912038685" fill="#ffd714" stroke="none" /><path d="M 82.576782715395 88.27688183743585 l -19.133077703588356 -12.873588561102132 a44.06087476337551,44.06087476337551 0 0,0 0.42762183246052765,-0.623913033193199 l 18.909266134312514 13.200136329365364" fill="#fff517" stroke="none" /><path d="M 83.2033758604659 87.39550010848427 l -16.71295061089241 -12.541709715708642 a41.89538706784896,41.89538706784896 0 0,0 0.43660583894165206,-0.571531058410335 l 16.495192794596452 12.82676168735986" fill="#ffd714" stroke="none" /><path d="M 83.42222388311158 87.10902102172516 l -21.717762096340117 -16.887863164823756 a48.5111088970808,48.5111088970808 0 0,0 0.5168363593847516,-0.6530058563708441 l 21.424659306313803 17.25818896510928" fill="#cfff1d" stroke="none" /><path d="M 83.64595745247003 86.82634096563983 l -21.478428699964148 -17.30150178249833 a48.58015343230049,48.58015343230049 0 0,0 0.5287213613727461,-0.644954091983929 l 21.178260519352772 17.667658156180753" fill="#ceff1d" stroke="none" /><path d="M 83.8745106332314 86.54754324733833 l -20.792675439346347 -17.345989368630807 a48.07801135797549,48.07801135797549 0 0,0 0.5341362583610656,-0.6292111692828173 l 20.491844617478165 17.70036732036318" fill="#d5ff1c" stroke="none" /><path d="M 84.58840730492382 85.73525988315684 l -20.25449030992825 -18.74725384888693 a48.59898376008768,48.59898376008768 0 0,0 0.5719502534595878,-0.607391348850144 l 19.929684222732394 19.092186657681587" fill="#ceff1d" stroke="none" /><path d="M 85.86807049272753 84.46653392183569 l -18.54314153738952 -20.382160829871875 a48.55504632858424,48.55504632858424 0 0,0 0.6213542415571929,-0.5556187942608264 l 18.190522269008934 20.6974751540161" fill="#ceff1d" stroke="none" /><path d="M 87.83215693770416 82.88440491214696 l -16.03507623642394 -22.55534285414288 a48.674305071236425,48.674305071236425 0 0,0 0.6851601672744367,-0.47829500897773564 l 15.645520977975739 22.82728267892574" fill="#cdff1d" stroke="none" /><line stroke="#e1ed5e" stroke-width="0.3" x1="56.869717070023135" x2="54.33264160355391" y1="26.7553504044142" y2="22.446841604673864" /><path d="M 56.362301976729285 25.89364864446614 a86.0,86.0 0 0,1 42.16139366436587,-11.88097634709845" fill="none" id="id36" stroke="none" /><text fill="#e1ed5e" style="font-size:6.75px; font-family:Arial;" text-anchor="middle"><textPath startOffset="22.145653131862474" xlink:href="#id36">December</textPath></text><path d="M 89.34428304082924 81.90426304109057 l -23.132152717283216 -39.28345248557115 a66.58822357278072,66.58822357278072 0 0,0 0.9899688072008489,-0.5715587573267398 l 22.454391442221965 39.67475814017407" fill="#35ff68" stroke="none" /><path d="M 90.28995756902619 81.37971332152246 l -9.58621206022911 -18.38282561492816 a41.732190893693335,41.732190893693335 0 0,0 0.6380509749627266,-0.3257933741091616 l 9.2692338635528 18.544676940710154" fill="#ffd513" stroke="none" /><path d="M 91.26138138417902 80.90454125486306 l -17.78979716818472 -38.8739173597074 a63.75112085284447,63.75112085284447 0 0,0 0.9990304488382281,-0.44685361261103956 l 17.11985331649087 39.173574723228285" fill="#31ff44" stroke="none" /><path d="M 93.95794788825049 79.88797359093562 l -5.858448854393363 -19.500870879048975 a41.361861113878646,41.361861113878646 0 0,0 0.6817616235157586,-0.19845087250507823 l 5.52282721849598 19.598565445856575" fill="#ffd013" stroke="none" /><path d="M 94.30408787586887 79.78721728523814 l -11.592148745603927 -41.136446399764935 a63.738567300986354,63.738567300986354 0 0,0 1.055688532621897,-0.2877326040044762 l 10.884278812047352 41.32937949791355" fill="#31ff43" stroke="none" /><path d="M 94.6519064749342 79.69241777938228 l -16.044280575197423 -60.922746661853175 a84.0,84.0 0 0,0 1.3975788270984877,-0.35525907265894796 l 14.996096454873559 61.18919096634739" fill="#4dd2ff" stroke="none" /><path d="M 96.05791012581881 79.37332000966035 l -2.3294241639863196 -12.188531546934964 a33.40913043715764,33.40913043715764 0 0,0 0.5642408642058393,-0.10282348131042078 l 2.1198485662294417 12.226723202176746" fill="#ff5d08" stroke="none" /></svg>