<?xml version="1.0" encoding="utf-8" ?>
<svg baseProfile="full" height="200mm" version="1.1" viewBox="0,0,200,200" width="200mm" xmlns="http://www.w3.org/2000/svg" xmlns:ev="http://www.w3.org/2001/xml-events" xmlns:xlink="http://www.w3.org/1999/xlink"><defs /><rect fill="#1a1a1a" height="200" width="200" x="0" y="0" /><text alignment-baseline="middle" fill="#e1ed5e" style="dominant-baseline: central; font-size:9.0px; font-family:Arial;" text-anchor="middle" x="100.0" y="100.0">2018</text><line stroke="#e1ed5e" stroke-width="0.3" x1="100.0" x2="100.0" y1="15.0" y2="10.0" /><path d="M 100.0 14.0 a86.0,86.0 0 0,1 42.46469731375804,11.215312516191453" fill="none" id="id1" stroke="none" /><text fill="#e1ed5e" style="font-size:6.75px; font-family:Arial;" text-anchor="middle"><textPath startOffset="22.20632615414155" xlink:href="#id1">January</textPath></text><line stroke="#e1ed5e" stroke-width="0.3" x1="143.23703022742887" x2="145.7803849466894" y1="26.81831364943548" y2="22.513508569990506" /><path d="M 143.74570117128098 25.957352633546492 a86.0,86.0 0 0,1 28.547481713284135,27.462654790039103" fill="none" id="id2" stroke="none" /><text fill="#e1ed5e" style="font-size:6.75px; font-family:Arial;" text-anchor="middle"><textPath startOffset="19.985693538727396" xlink:href="#id2">February</textPath></text><line stroke="#e1ed5e" stroke-width="0.3" x1="172.23445277983987" x2="176.4835382374775" y1="55.19839476539836" y2="52.563006222186495" /><path d="M 173.08426987136738 54.67131705675599 a86.0,86.0 0 0,1 12.851231095245387,41.99856678651699" fill="none" id="id3" stroke="none" /><text fill="#e1ed5e" style="font-size:6.75px; font-family:Arial;" text-anchor="middle"><textPath startOffset="22.20632615414155" xlink:href="#id3">March</textPath></text><line stroke="#e1ed5e" stroke-width="0.3" x1="184.98032266829074" x2="189.97916517819016" y1="98.17113171792111" y2="98.06355123074" /><path d="M 185.9800911702706 98.14961562048488 a86.0,86.0 0 0,1 -9.607161424134198,41.387399972396054" fill="none" id="id4" stroke="none" /><text fill="#e1ed5e" style="font-size:6.75px; font-family:Arial;" text-anchor="middle"><textPath startOffset="21.466115282336823" xlink:href="#id4">April</textPath></text><line stroke="#e1ed5e" stroke-width="0.3" x1="174.80103733775053" x2="179.2010983576182" y1="140.37084112569926" y2="142.7455964860345" /><path d="M 175.68104954172406 140.8457921977663 a86.0,86.0 0 0,1 -30.038265399797805,32.042727171017184" fill="none" id="id5" stroke="none" /><text fill="#e1ed5e" style="font-size:6.75px; font-family:Arial;" text-anchor="middle"><textPath startOffset="22.206326154141568" xlink:href="#id5">May</textPath></text><line stroke="#e1ed5e" stroke-width="0.3" x1="143.8653032363475" x2="146.44561519142675" y1="172.8068346515853" y2="177.08958963109032" /><path d="M 144.38136562736335 173.6633856474863 a86.0,86.0 0 0,1 -40.68145358897372,12.25698825130547" fill="none" id="id6" stroke="none" /><text fill="#e1ed5e" style="font-size:6.75px; font-family:Arial;" text-anchor="middle"><textPath startOffset="21.466115282336833" xlink:href="#id6">June</textPath></text><line stroke="#e1ed5e" stroke-width="0.3" x1="102.19456741930631" x2="102.32365962044197" y1="184.97166512339345" y2="189.96999836594603" /><path d="M 102.22038585953345 185.97133177190398 a86.0,86.0 0 0,1 -42.740103519485714,-10.115201625700543" fill="none" id="id7" stroke="none" /><text fill="#e1ed5e" style="font-size:6.75px; font-family:Arial;" text-anchor="middle"><textPath startOffset="22.20632615414155" xlink:href="#id7">July</textPath></text><line stroke="#e1ed5e" stroke-width="0.3" x1="58.666819895761336" x2="56.23545636021788" y1="174.27360380694188" y2="178.64263932499728" /><path d="M 58.180547188652646 175.14741091055294 a86.0,86.0 0 0,1 -31.652253787137756,-30.449443065178592" fill="none" id="id8" stroke="none" /><text fill="#e1ed5e" style="font-size:6.75px; font-family:Arial;" text-anchor="middle"><textPath startOffset="22.20632615414155" xlink:href="#id8">August</textPath></text><path d="M 82.44556493220864 111.52570212397912 l -5.049905978405734 3.3156129397748137 a27.041095890410958,27.041095890410958 0 0,0 -0.2521197649665439,-0.3912954740737515 l 5.106230606749324 -3.228195865779614" fill="#ff2a04" stroke="none" /><path d="M 82.05923443525364 110.91462005526583 l -7.7275317195264845 4.701196968393639 a30.04521969948334,30.04521969948334 0 0,0 -0.2649975848663113,-0.4441511948685416 l 7.807310180091028 -4.567483679638986" fill="#ff5607" stroke="none" /><line stroke="#e1ed5e" stroke-width="0.3" x1="26.63291911575756" x2="22.317208475507996" y1="142.92168965132927" y2="145.44649492493687" /><path d="M 25.769776987707644 143.4266507060508 a86.0,86.0 0 0,1 -11.730757126820373,-40.83630448921669" fill="none" id="id9" stroke="none" /><text fill="#e1ed5e" style="font-size:6.75px; font-family:Arial;" text-anchor="middle"><textPath startOffset="21.46611528233685" xlink:href="#id9">September</textPath></text><path d="M 81.69416730710424 110.29060199501025 l -9.136863926444153 5.136277148763232 a31.48158505948713,31.48158505948713 0 0,0 -0.261482433439678,-0.4746665694000126 l 9.223922769335347 -4.978240060965397" fill="#ff6a09" stroke="none" /><path d="M 81.18737489456691 109.33194174019688 l -8.509687698779352 4.2212030159121605 a30.499123098070818,30.499123098070818 0 0,0 -0.22924701224463248,-0.4723167459460433 l 8.581087967638704 -4.0740973140008325" fill="#ff5c08" stroke="none" /><path d="M 80.87730276802145 108.67885076344099 l -8.157760586235337 3.7024058809768663 a29.95861970896336,29.95861970896336 0 0,0 -0.2090810860711319,-0.47142265329569766 l 8.220282757037749 -3.561434891188473" fill="#ff5507" stroke="none" /><path d="M 80.58989483394504 108.01547362559985 l -11.040492107534693 4.559211428506335 a32.94482627861781,32.94482627861781 0 0,0 -0.21194094780884656,-0.526020051310929 l 11.117335669600926 -4.3684920093526" fill="#ff7f0b" stroke="none" /><path d="M 80.20201598880116 107.00284435728193 l -8.445838560022256 2.9874199751404165 a29.95861970896336,29.95861970896336 0 0,0 -0.16778135095519048,-0.4876511425852696 l 8.496010741920674 -2.84159612946585" fill="#ff5507" stroke="none" /><path d="M 79.97269907076064 106.31721596034903 l -8.54366537247733 2.6949302575314626 a29.95861970896336,29.95861970896336 0 0,0 -0.1508961856132623,-0.4931374653790121 l 8.588788330596723 -2.5474658196004025" fill="#ff5507" stroke="none" /><path d="M 79.67330655649465 105.27499134158121 l -8.859266540884088 2.2990731092496195 a30.152723135990897,30.152723135990897 0 0,0 -0.12605085402541058,-0.5035105033404846 l 8.897528709204558 -2.1462347665117427" fill="#ff5708" stroke="none" /><path d="M 79.4281124754447 104.21870165774334 l -15.100547480933933 3.0966873902362124 a36.414798312556286,36.414798312556286 0 0,0 -0.12063714091819662,-0.6151261825223021 l 15.151614554827797 -2.836297480645955" fill="#ffae10" stroke="none" /><path d="M 79.23777060512086 103.15116336523772 l -15.993126505957292 2.427338287362101 a37.176280987818174,37.176280987818174 0 0,0 -0.0905790331626326,-0.6335095469723657 l 16.032539590136526 -2.1516832684093345" fill="#ffb911" stroke="none" /><path d="M 79.10278846688536 102.07522291339032 l -9.093065453571239 0.9029978833446975 a30.137792103142626,30.137792103142626 0 0,0 -0.0468217921277428,-0.5166745745326379 l 9.107261841976058 -0.7463419202634934" fill="#ff5708" stroke="none" /><path d="M 79.04373962182676 101.35467743843564 l -14.986353525406438 0.9687642088296212 a36.017632838792245,36.017632838792245 0 0,0 -0.034668942479288783,-0.619037257245984 l 15.000808818773258 -0.7106552352481995" fill="#ffa90f" stroke="none" /><path d="M 79.0235259727143 100.99374915477108 l -9.044035064330984 0.42845628818304654 a30.054178319192303,30.054178319192303 0 0,0 -0.0200330664465892,-0.5169644300567092 l 9.050070263628774 -0.2727146111123405" fill="#ff5607" stroke="none" /><path d="M 79.0095281055655 100.63252640178507 l -14.924258350311304 0.4497272610691631 a35.93103284827227,35.93103284827227 0 0,0 -0.013308062912228557,-0.6183733905021435 l 14.92978847590854 -0.19276405477689082" fill="#ffa80f" stroke="none" /><line stroke="#e1ed5e" stroke-width="0.3" x1="15.007084014347285" x2="10.007500721073583" y1="101.09737516637583" y2="101.16192664675087" /><path d="M 14.007167355692545 101.11028546245083 a86.0,86.0 0 0,1 10.666146001902534,-42.60595125391555" fill="none" id="id10" stroke="none" /><text fill="#e1ed5e" style="font-size:6.75px; font-family:Arial;" text-anchor="middle"><textPath startOffset="22.20632615414155" xlink:href="#id10">October</textPath></text><path d="M 79.00486145842228 99.54816195383935 l -14.927576343729708 -0.3212575575868476 a35.93103284827227,35.93103284827227 0 0,0 0.0186299078179163,-0.6182359429492333 l 14.919834741456146 0.5781636479610754" fill="#ffa80f" stroke="none" /><path d="M 79.03285615573316 98.82574320788736 l -14.907672070152287 -0.8348984159686056 a35.93103284827227,35.93103284827227 0 0,0 0.03989954526774885,-0.6172283053353099 l 14.891091933880125 1.0913857855569273" fill="#ffa80f" stroke="none" /><path d="M 79.08570108090925 98.10471618934814 l -20.81813894396862 -1.8865696555760982 a41.90344598758117,41.90344598758117 0 0,0 0.07128150164266102,-0.7177949937875336 l 20.78258031664373 2.244640180068062" fill="#fff617" stroke="none" /><path d="M 79.21141760316559 97.0276538004421 l -15.422197615436097 -2.205061874640031 a36.57903967388728,36.57903967388728 0 0,0 0.09448558695039683,-0.6225419641567711 l 15.3819561350464 2.4702029511888943" fill="#ffb110" stroke="none" /><path d="M 79.46518482838121 95.60439243477599 l -14.60028570764952 -3.1252838544987496 a35.93103284827227,35.93103284827227 0 0,0 0.1346654269511044,-0.6036787037851411 l 14.544325893696378 3.37614072783385" fill="#ffa80f" stroke="none" /><path d="M 79.62865764111835 94.90015583598534 l -20.480455582873386 -5.127160009420808 a42.11248044745699,42.11248044745699 0 0,0 0.18209369993662167,-0.7016813065508944 l 20.38916555106646 5.478937741520566" fill="#fff917" stroke="none" /><path d="M 79.71946130924805 94.55025226153421 l -20.18729262481827 -5.424690833188678 a41.90344598758117,41.90344598758117 0 0,0 0.193181330021705,-0.6949760278699708 l 20.090924524230203 5.771378164477592" fill="#fff617" stroke="none" /><path d="M 80.14247586403 93.16781622104843 l -19.76622301063516 -6.800770695263922 a41.90344598758117,41.90344598758117 0 0,0 0.24053958653597418,-0.680037802546284 l 19.646230343289375 7.140006124236817" fill="#fff617" stroke="none" /><path d="M 80.52162464483688 92.15188598940014 l -13.849155345662744 -5.580021337583439 a35.93103284827227,35.93103284827227 0 0,0 0.23608110956386444,-0.5716891325945311 l 13.75105254921268 5.817585040631282" fill="#ffa80f" stroke="none" /><line stroke="#e1ed5e" stroke-width="0.3" x1="26.266209847984243" x2="21.928928074336255" y1="57.711370442889674" y2="55.22380399835377" /><path d="M 25.398753493254645 57.213857153982495 a86.0,86.0 0 0,1 29.58750427330803,-30.492523968695096" fill="none" id="id11" stroke="none" /><text fill="#e1ed5e" style="font-size:6.75px; font-family:Arial;" text-anchor="middle"><textPath startOffset="21.46611528233685" xlink:href="#id11">November</textPath></text><path d="M 81.96595687620814 89.24020034530311 l -12.82223286992833 -7.650234385005139 a35.93103284827227,35.93103284827227 0 0,0 0.3214701630213977,-0.5284124231191275 l 12.688646908620715 7.869814581331341" fill="#ffa80f" stroke="none" /><path d="M 82.15384107792192 88.93136811851018 l -12.82568429523382 -7.95480857880972 a36.09228800303361,36.09228800303361 0 0,0 0.3320016205013812,-0.5251468332715675 l 12.686855078486477 8.174403059795504" fill="#ffaa0f" stroke="none" /><path d="M 82.34701348167596 88.62581576622439 l -13.623182135129822 -8.777697943314246 a37.20614305351472,37.20614305351472 0 0,0 0.351515427008184,-0.5353821114207121 l 13.470070072763718 9.010898118712626" fill="#ffb911" stroke="none" /><path d="M 82.7489923806493 88.02491185347247 l -17.269814709232918 -11.988143416346459 a42.02289425036735,42.02289425036735 0 0,0 0.4176022718746586,-0.5906687981937234 l 17.060899817554382 12.28363871487197" fill="#fff817" stroke="none" /><path d="M 83.39014120810768 87.1503855733568 l -16.533489815127215 -12.790534339456196 a41.90344598758117,41.90344598758117 0 0,0 0.4462635573415936,-0.5667093990500333 l 16.310872177191648 13.073236132459277" fill="#fff617" stroke="none" /><path d="M 83.84228863543731 86.58626213691792 l -16.08342127581251 -13.352064043452796 a41.90344598758117,41.90344598758117 0 0,0 0.465506152724678,-0.5510124566271559 l 15.851204509600706 13.626935449709068" fill="#fff617" stroke="none" /><path d="M 84.5562425177563 85.77008943001954 l -23.05912502681313 -21.246726214835505 a52.35516898137176,52.35516898137176 0 0,0 0.6163766017120884,-0.6575075830907332 l 22.689981103130588 21.640503214804287" fill="#8bff24" stroke="none" /><path d="M 85.31137513191541 84.99185889309783 l -10.497942160543179 -10.726300024167942 a36.00867421908328,36.00867421908328 0 0,0 0.4467077623510657,-0.4297325134556243 l 10.311751154579685 10.90541562438588" fill="#ffa90f" stroke="none" /><path d="M 86.37877921826538 84.01681056812374 l -9.684709282173735 -11.364072687023931 a35.93103284827227,35.93103284827227 0 0,0 0.47419118777015656,-0.39712148274899534 l 9.487660557444467 11.52909532716674" fill="#ffa80f" stroke="none" /><path d="M 86.93701828274178 83.55741782278169 l -39.18894515177469 -49.32774653165494 a84.0,84.0 0 0,0 1.1398697793622974,-0.889686443107113 l 38.334042817252964 49.99501136398527" fill="#4dd2ff" stroke="none" /><path d="M 87.51073957382395 83.11751280151077 l -9.716368743178052 -13.13420213247399 a37.33753614257951,37.33753614257951 0 0,0 0.5199779676527301,-0.3777861071255054 l 9.48884545917154 13.299507474416163" fill="#ffbb11" stroke="none" /><path d="M 88.09926311788651 82.69761687909137 l -4.362719772776495 -6.342922266535872 a28.69844053656918,28.69844053656918 0 0,0 0.409424669648057,-0.2764453645787162 l 4.252890408721898 6.417079543413254" fill="#ff4206" stroke="none" /><path d="M 88.39885842347998 82.49532879139004 l -11.841445831577108 -17.86726026478679 a42.434990756979666,42.434990756979666 0 0,0 0.6123429266620872,-0.39828487292766096 l 11.532135879130733 18.068444061873986" fill="#fffd17" stroke="none" /><path d="M 88.70189139769569 82.29822771554957 l -8.065104780333838 -12.636331734551046 a35.990756979665356,35.990756979665356 0 0,0 0.525089458580691,-0.3288109707914306 l 7.846396169380904 12.773287046665407" fill="#ffa90f" stroke="none" /><line stroke="#e1ed5e" stroke-width="0.3" x1="56.762969772571076" x2="54.21961505331055" y1="26.818313649435495" y2="22.513508569990535" /><path d="M 56.25429882871897 25.957352633546506 a86.0,86.0 0 0,1 42.265352541879196,-11.944610805530505" fill="none" id="id12" stroke="none" /><text fill="#e1ed5e" style="font-size:6.75px; font-family:Arial;" text-anchor="middle"><textPath startOffset="22.20632615414155" xlink:href="#id12">December</textPath></text><path d="M 90.58718382345135 81.22770947309562 l -6.794253435866837 -13.55000427282078 a36.157984547566,36.157984547566 0 0,0 0.5587764244132472,-0.274189164720212 l 6.560005744443163 13.664948597675822" fill="#ffab0f" stroke="none" /><path d="M 90.91171255644093 81.06846463323043 l -1.43710133723814 -2.993582119900614 a24.320661705455752,24.320661705455752 0 0,0 0.37896430598268316,-0.17792882301543794 l 1.3853588199558484 3.0178759255560594" fill="#ff0100" stroke="none" /><path d="M 91.23893434514133 80.91482961587045 l -3.7698703140165453 -8.212313444903451 a30.036261079774377,30.036261079774377 0 0,0 0.4717379046909553,-0.21165504700496468 l 3.6279502908588155 8.275988822424944" fill="#ff5607" stroke="none" /><path d="M 91.56875222667455 80.76684994638697 l -2.508153340540859 -5.721536224888625 a27.247144143717115,27.247144143717115 0 0,0 0.4311746929898039,-0.1846065014492418 l 2.409294889760747 5.763862254300653" fill="#ff2d04" stroke="none" /><path d="M 91.90106846888425 80.62456947434976 l -4.714939425755497 -11.279757203205964 a33.22552969616533,33.22552969616533 0 0,0 0.5295771776560386,-0.21602782765693626 l 4.520078378511078 11.359245917046477" fill="#ff830c" stroke="none" /><path d="M 92.91201910852362 80.23233633223022 l -1.5793998279769856 -4.404786789694541 a25.679385694648527,25.679385694648527 0 0,0 0.417373164865875,-0.14561330188478605 l 1.5033446590478254 4.431320944751538" fill="#ff1602" stroke="none" /><path d="M 93.25333710446033 80.11325718540243 l -1.039005913049646 -3.062616836736386 a24.234061714935773,24.234061714935773 0 0,0 0.39618903207500134,-0.13061729483740303 l 0.9861340587322355 3.080047855833023" fill="#ff0000" stroke="none" /><path d="M 93.59665428221793 80.00007090966166 l -4.552788821478464 -14.21998086718847 a35.93103284827227,35.93103284827227 0 0,0 0.5906627672778512,-0.18352179699224944 l 4.307340681489885 14.296242799063245" fill="#ffa80f" stroke="none" /><path d="M 94.98787191387505 79.60689891045804 l -3.5636309092228395 -14.499526773623236 a35.93103284827227,35.93103284827227 0 0,0 0.6018898218568237,-0.1424478745533005 l 3.3135174004034815 14.558720560317408" fill="#ffa80f" stroke="none" /><path d="M 99.63851952072746 79.00311137660856 l -0.5140263723835724 -29.85764130927351 a50.86206569654453,50.86206569654453 0 0,0 0.8755068516561008,-0.007535763879581577 l 7.314096634240247e-15 29.862065696544533" fill="#9cff22" stroke="none" /></svg>