<?xml version="1.0" encoding="utf-8" ?>
<svg baseProfile="full" height="200mm" version="1.1" viewBox="0,0,200,200" width="200mm" xmlns="http://www.w3.org/2000/svg" xmlns:ev="http://www.w3.org/2001/xml-events" xmlns:xlink="http://www.w3.org/1999/xlink"><defs /><rect fill="#1a1a1a" height="200" width="200" x="0" y="0" /><text alignment-baseline="middle" fill="#e1ed5e" style="dominant-baseline: central; font-size:9.0px; font-family:Arial;" text-anchor="middle" x="100.0" y="100.0">2021</text><line stroke="#e1ed5e" stroke-width="0.3" x1="100.0" x2="100.0" y1="15.0" y2="10.0" /><path d="M 100.0 14.0 a86.0,86.0 0 0,1 42.46469731375804,11.215312516191453" fill="none" id="id37" stroke="none" /><text fill="#e1ed5e" style="font-size:6.75px; font-family:Arial;" text-anchor="middle"><textPath startOffset="22.20632615414155" xlink:href="#id37">January</textPath></text><path d="M 101.08401301168833 79.027996857942 l 0.9134416114962313 -17.672020667491154 a38.695612169400846,38.695612169400846 0 0,0 0.6648974006715991,0.040108426964551205 l -1.2175010610074424 17.6536789711463" fill="#ff0000" stroke="none" /><path d="M 101.80526077348638 79.07773832637324 l 1.5355003189532928 -17.795844204289192 a38.861966078034044,38.861966078034044 0 0,0 0.6659735763502734,0.06324221570411566 l -1.8415990223938103 17.766776444069897" fill="#ff0400" stroke="none" /><path d="M 102.52436894288641 79.15227682838746 l 2.238274956751753 -18.484990798119384 a39.620009655974414,39.620009655974414 0 0,0 0.6763423770497022,0.08780865169724499 l -2.556132062309301 18.443723823258004" fill="#ff1302" stroke="none" /><path d="M 104.307194497241 79.44645832069477 l 3.627088358976779 -17.308136841395275 a38.684099380072745,38.684099380072745 0 0,0 0.6505510074114613,0.14218525287902467 l -3.9244820905417686 17.24313809042038" fill="#ff0000" stroke="none" /><path d="M 104.66035177308747 79.52364482259891 l 3.9821276715560523 -17.496417552728893 a38.943855995075644,38.943855995075644 0 0,0 0.6523583846385779,0.15439215278987556 l -4.282709743157154 17.42527948779815" fill="#ff0500" stroke="none" /><path d="M 105.36241919743992 79.69619591428918 l 4.57422355511919 -17.31944771339823 a38.91331321194777,38.91331321194777 0 0,0 0.6461502121097641,0.1766172614352682 l -4.871671656452665 17.238143911136667" fill="#ff0500" stroke="none" /><path d="M 105.71112130821622 79.79150937346287 l 7.774228860079717 -27.508683946435884 a49.586121227508215,49.586121227508215 0 0,0 0.8193747205284464,0.239197949656492 l -8.24659379833159 27.37078766786069" fill="#ffcc13" stroke="none" /><path d="M 106.0581310904928 79.89281104454417 l 8.267722457762071 -27.44091456693206 a49.65936194175033,49.65936194175033 0 0,0 0.8163399106735659,0.2536407839853444 l -8.738847741146355 27.294533648064196" fill="#ffcd13" stroke="none" /><path d="M 106.74666289553966 80.11325718540242 l 9.318607554277333 -27.46791335085023 a50.00556344221658,50.00556344221658 0 0,0 0.8127523190373424,0.2835533253020096 l -9.790041877377949 27.30343917237601" fill="#ffd313" stroke="none" /><path d="M 107.08798089147638 80.2323363322302 l 6.176495089873167 -17.225621718177734 a39.2994845603089,39.2994845603089 0 0,0 0.6348133214706917,0.23380710370765664 l -6.472090737116435 17.11675134666375" fill="#ff0c01" stroke="none" /><path d="M 107.76421540070413 80.48803036053334 l 10.674021078269782 -26.824497320275153 a49.87019886430983,49.87019886430983 0 0,0 0.7948742850818752,0.3242491789895968 l -11.134179232940044 26.636787255101975" fill="#ffd013" stroke="none" /><path d="M 109.41281617654863 81.2277094730956 l 13.065554066882227 -26.057066475978203 a50.14926099248778,50.14926099248778 0 0,0 0.7683332752146314,0.3935701457912492 l -13.512147829685615 25.82830380487445" fill="#ffd513" stroke="none" /><path d="M 109.73455568895987 81.39251694778311 l 13.35983888242116 -25.53716713202779 a49.82069048606179,49.82069048606179 0 0,0 0.7564559022314592,0.40407254524514225 l -13.79743983118093 25.303415860280893" fill="#ffd013" stroke="none" /><line stroke="#e1ed5e" stroke-width="0.3" x1="143.23703022742887" x2="145.7803849466894" y1="26.81831364943548" y2="22.513508569990506" /><path d="M 143.74570117128098 25.957352633546492 a86.0,86.0 0 0,1 28.547481713284135,27.462654790039103" fill="none" id="id38" stroke="none" /><text fill="#e1ed5e" style="font-size:6.75px; font-family:Arial;" text-anchor="middle"><textPath startOffset="19.985693538727396" xlink:href="#id38">February</textPath></text><path d="M 111.60114157652 82.49532879139004 l 16.043997237601037 -24.208384551091534 a50.04230930786457,50.04230930786457 0 0,0 0.7139257595091448,0.48204585971649455 l -16.458327691516725 23.92862677907637" fill="#ffd313" stroke="none" /><path d="M 112.48926042617603 83.11751280151076 l 10.695648674618534 -14.457953927386608 a38.98414113426891,38.98414113426891 0 0,0 0.536039080711723,0.4037335223364851 l -10.942933909088639 14.271703815544276" fill="#ff0601" stroke="none" /><path d="M 113.89432698308785 84.25364557470407 l 18.987043114502416 -21.51789796895121 a49.69717301815927,49.69717301815927 0 0,0 0.6365711185440892,0.5715198354880566 l -19.354625220642497 21.187879124693858" fill="#ffce13" stroke="none" /><path d="M 114.42810811169701 84.74124197986012 l 19.718249769765997 -20.853461832159066 a49.69976035384602,49.69976035384602 0 0,0 0.6165533505059094,0.5931238346921054 l -20.074286363884323 20.51095491070466" fill="#ffce13" stroke="none" /><path d="M 116.15771136456269 86.58626213691792 l 22.19343940747988 -18.42445206349233 a49.844569446837085,49.844569446837085 0 0,0 0.5423599657335444,0.6648691886251169 l -22.507297865289832 18.03969870525911" fill="#ffd013" stroke="none" /><line stroke="#e1ed5e" stroke-width="0.3" x1="172.23445277983987" x2="176.4835382374775" y1="55.19839476539836" y2="52.563006222186495" /><path d="M 173.08426987136738 54.67131705675599 a86.0,86.0 0 0,1 12.851231095245387,41.99856678651699" fill="none" id="id39" stroke="none" /><text fill="#e1ed5e" style="font-size:6.75px; font-family:Arial;" text-anchor="middle"><textPath startOffset="22.20632615414155" xlink:href="#id39">March</textPath></text><path d="M 118.89224826269711 90.83032412892265 l 26.089210970330672 -12.66284483474887 a49.999906350941,49.999906350941 0 0,0 0.36914646611394947,0.7775166017220237 l -26.303315630286377 12.211885817386305" fill="#ffd313" stroke="none" /><path d="M 119.7369772167798 92.82701384747503 l 27.160821411558 -9.871025017482177 a49.89891615002726,49.89891615002726 0 0,0 0.2864362196578774,0.8097937648889822 l -27.326710712025687 9.40203362616658" fill="#ffd113" stroke="none" /><path d="M 120.53481517161879 95.60439243477599 l 28.8037558552344 -6.165626818941222 a50.45626088692177,50.45626088692177 0 0,0 0.1744842471954696,0.8508471561442325 l -28.905619398344864 5.668904006633578" fill="#ffdb14" stroke="none" /><path d="M 120.78858239683441 97.02765380044208 l 17.645459703016094 -2.5229433198724878 a38.824912093080684,38.824912093080684 0 0,0 0.08889795760300565,0.66239304161441 l -17.686273659676935 2.2188319361934137" fill="#ff0300" stroke="none" /><line stroke="#e1ed5e" stroke-width="0.3" x1="184.98032266829074" x2="189.97916517819016" y1="98.17113171792111" y2="98.06355123074" /><path d="M 185.9800911702706 98.14961562048488 a86.0,86.0 0 0,1 -9.607161424134198,41.387399972396054" fill="none" id="id40" stroke="none" /><text fill="#e1ed5e" style="font-size:6.75px; font-family:Arial;" text-anchor="middle"><textPath startOffset="21.466115282336823" xlink:href="#id40">April</textPath></text><path d="M 120.49622156327973 104.57218783832717 l 29.069427611960986 6.4846529387961995 a50.783927635952885,50.783927635952885 0 0,0 -0.19766902403745462,0.8515529820743528 l -28.953498021992978 -6.984074578219118" fill="#ffe015" stroke="none" /><path d="M 120.41448212921028 104.9243191809786 l 28.572363741264823 6.892138528250323 a50.391861854189116,50.391861854189116 0 0,0 -0.21065882487638668,0.8414772891998307 l -28.449493602093373 -7.382943656847549" fill="#ffd914" stroke="none" /><path d="M 120.02730092923936 106.31721596034902 l 51.24439138295696 16.164029704579992 a74.73326255216799,74.73326255216799 0 0,0 -0.3975373587578329,1.2234941844611236 l -50.958561773182886 -17.04372278901891" fill="#3dffaf" stroke="none" /><path d="M 119.9155931802556 106.66101706037122 l 59.700439249080105 19.967552096014174 a83.95113647298311,83.95113647298311 0 0,0 -0.4701630191409035,1.3665138120543363 l -59.34788539899597 -20.992238611157813" fill="#4dd3ff" stroke="none" /><path d="M 119.79798401119884 107.00284435728193 l 59.393952033596506 21.00853307184577 a84.0,84.0 0 0,0 -0.49390295597909306,1.3590088119754755 l -59.02352481661219 -22.027789680827375" fill="#4dd2ff" stroke="none" /><path d="M 119.67450827220406 107.3425965602758 l 27.407623383968776 10.22862266239089 a50.25410297936084,50.25410297936084 0 0,0 -0.3094353804346834,0.8078381350367863 l -27.227493723940587 -10.69888436426082" fill="#ffd714" stroke="none" /><path d="M 119.54520255179757 107.68017299344265 l 27.3205468607512 10.7354490499628 a50.35408228977444,50.35408228977444 0 0,0 -0.32393832756269814,0.8039883630217313 l -27.131705918931107 -11.204136780827344" fill="#ffd914" stroke="none" /><path d="M 119.41010516605496 108.01547362559984 l 27.526217250131804 11.367051671972272 a50.78090831077422,50.78090831077422 0 0,0 -0.3405924337969464,0.8050599041175033 l -27.326473835142547 -11.839186101755939" fill="#ffe015" stroke="none" /><path d="M 119.26925614724726 108.34839909993367 l 26.976029540665927 11.687356222583178 a50.39898748685802,50.39898748685802 0 0,0 -0.3517343303198125,0.793068059719831 l -26.77085412561484 -12.149972618795697" fill="#ffda14" stroke="none" /><path d="M 119.12269723197855 108.67885076344098 l 27.277245575069994 12.379798765410325 a50.955092115277004,50.955092115277004 0 0,0 -0.36936468672427286,0.795578674978953 l -27.060106271505887 -12.847497507668109" fill="#ffe315" stroke="none" /><path d="M 118.97047184881838 109.00673069616215 l 26.43939930496206 12.55280054211845 a50.26797972285476,50.26797972285476 0 0,0 -0.3778398521814381,0.7784620079612362 l -26.219406196165906 -13.006051506044962" fill="#ffd714" stroke="none" /><path d="M 118.64920377521936 109.65438752849418 l 15.996051819211239 8.280894189903462 a39.0124091222487,39.0124091222487 0 0,0 -0.3138594604432485,0.5937038181327335 l -15.851139850543097 -8.55501302312233" fill="#ff0701" stroke="none" /><line stroke="#e1ed5e" stroke-width="0.3" x1="174.80103733775053" x2="179.2010983576182" y1="140.37084112569926" y2="142.7455964860345" /><path d="M 175.68104954172406 140.8457921977663 a86.0,86.0 0 0,1 -30.038265399797805,32.042727171017184" fill="none" id="id41" stroke="none" /><text fill="#e1ed5e" style="font-size:6.75px; font-family:Arial;" text-anchor="middle"><textPath startOffset="22.206326154141568" xlink:href="#id41">May</textPath></text><path d="M 118.48025628344425 109.97397251340804 l 25.911853829033106 13.984877368489387 a50.44488009601778,50.44488009601778 0 0,0 -0.4189893862445477,0.7605874397279521 l -25.667288033337048 -14.428835326615143" fill="#ffda14" stroke="none" /><path d="M 116.71984013943494 112.70617746262583 l 23.558050894311318 17.902849120590155 a50.58874395059003,50.58874395059003 0 0,0 -0.5328516803510093,0.688782625983036 l -23.24639239674224 -18.305709740686442" fill="#ffdd14" stroke="none" /><path d="M 111.1453310114006 117.79835938074945 l 15.40940999428392 24.607812602697372 a50.03436511207725,50.03436511207725 0 0,0 -0.7338869129857627,0.4508132825773736 l -14.983543881365847 -24.869414352103124" fill="#ffd313" stroke="none" /><line stroke="#e1ed5e" stroke-width="0.3" x1="143.8653032363475" x2="146.44561519142675" y1="172.8068346515853" y2="177.08958963109032" /><path d="M 144.38136562736335 173.6633856474863 a86.0,86.0 0 0,1 -40.68145358897372,12.25698825130547" fill="none" id="id42" stroke="none" /><text fill="#e1ed5e" style="font-size:6.75px; font-family:Arial;" text-anchor="middle"><textPath startOffset="21.466115282336833" xlink:href="#id42">June</textPath></text><path d="M 105.88484417918355 120.15858648285463 l 8.009133100694491 27.435357223926214 a49.5805010283074,49.5805010283074 0 0,0 -0.82131004654789,0.23211042299874754 l -7.535691886041996 -27.56915644026348" fill="#ffcb13" stroke="none" /><path d="M 105.18746579009965 120.34920634021253 l 4.915454221001828 19.282169029419904 a40.89883747051282,40.89883747051282 0 0,0 -0.6836858358021334,0.16803334444642135 l -4.582815100456483 -19.363923632180356" fill="#ff2c04" stroke="none" /><path d="M 104.48393922423573 120.51570834832081 l 6.282879356032281 28.746536027819186 a50.425123731280436,50.425123731280436 0 0,0 -0.8495637778384343,0.17803434979993343 l -5.787124116764469 -28.85042635834566" fill="#ffda14" stroke="none" /><path d="M 103.06178313531738 120.77559828337769 l 4.332710326481853 29.39942028647253 a50.71696976398931,50.71696976398931 0 0,0 -0.8647760387679322,0.11985007911602415 l -3.8260056965270897 -29.469644931081156" fill="#ffdf14" stroke="none" /><path d="M 101.98527174616119 120.90594882070398 l 2.775202806143092 29.224335632886632 a50.35580937052889,50.35580937052889 0 0,0 -0.8636157561676048,0.07451640134772727 l -2.2717427322339456 -29.267776286513023" fill="#ffd914" stroke="none" /><path d="M 100.90346689309514 120.98055641714683 l 1.28311822922863 29.79692405327116 a50.82453814272047,50.82453814272047 0 0,0 -0.8743748222142987,0.03011523681002647 l -0.7700230553396792 -29.81459608850728" fill="#ffe115" stroke="none" /><line stroke="#e1ed5e" stroke-width="0.3" x1="102.19456741930631" x2="102.32365962044197" y1="184.97166512339345" y2="189.96999836594603" /><path d="M 102.22038585953345 185.97133177190398 a86.0,86.0 0 0,1 -42.740103519485714,-10.115201625700543" fill="none" id="id43" stroke="none" /><text fill="#e1ed5e" style="font-size:6.75px; font-family:Arial;" text-anchor="middle"><textPath startOffset="22.20632615414155" xlink:href="#id43">July</textPath></text><line stroke="#e1ed5e" stroke-width="0.3" x1="58.666819895761336" x2="56.23545636021788" y1="174.27360380694188" y2="178.64263932499728" /><path d="M 58.180547188652646 175.14741091055294 a86.0,86.0 0 0,1 -31.652253787137756,-30.449443065178592" fill="none" id="id44" stroke="none" /><text fill="#e1ed5e" style="font-size:6.75px; font-family:Arial;" text-anchor="middle"><textPath startOffset="22.20632615414155" xlink:href="#id44">August</textPath></text><line stroke="#e1ed5e" stroke-width="0.3" x1="26.63291911575756" x2="22.317208475507996" y1="142.92168965132927" y2="145.44649492493687" /><path d="M 25.769776987707644 143.4266507060508 a86.0,86.0 0 0,1 -11.730757126820373,-40.83630448921669" fill="none" id="id45" stroke="none" /><text fill="#e1ed5e" style="font-size:6.75px; font-family:Arial;" text-anchor="middle"><textPath startOffset="21.46611528233685" xlink:href="#id45">September</textPath></text><line stroke="#e1ed5e" stroke-width="0.3" x1="15.007084014347285" x2="10.007500721073583" y1="101.09737516637583" y2="101.16192664675087" /><path d="M 14.007167355692545 101.11028546245083 a86.0,86.0 0 0,1 10.666146001902534,-42.60595125391555" fill="none" id="id46" stroke="none" /><text fill="#e1ed5e" style="font-size:6.75px; font-family:Arial;" text-anchor="middle"><textPath startOffset="22.20632615414155" xlink:href="#id46">October</textPath></text><line stroke="#e1ed5e" stroke-width="0.3" x1="26.266209847984243" x2="21.928928074336255" y1="57.711370442889674" y2="55.22380399835377" /><path d="M 25.398753493254645 57.213857153982495 a86.0,86.0 0 0,1 29.58750427330803,-30.492523968695096" fill="none" id="id47" stroke="none" /><text fill="#e1ed5e" style="font-size:6.75px; font-family:Arial;" text-anchor="middle"><textPath startOffset="21.46611528233685" xlink:href="#id47">November</textPath></text><line stroke="#e1ed5e" stroke-width="0.3" x1="56.762969772571076" x2="54.21961505331055" y1="26.818313649435495" y2="22.513508569990535" /><path d="M 56.25429882871897 25.957352633546506 a86.0,86.0 0 0,1 42.265352541879196,-11.944610805530505" fill="none" id="id48" stroke="none" /><text fill="#e1ed5e" style="font-size:6.75px; font-family:Arial;" text-anchor="middle"><textPath startOffset="22.20632615414155" xlink:href="#id48">December</textPath></text></svg>