<?xml version="1.0" encoding="utf-8" ?>
<svg baseProfile="full" height="200mm" version="1.1" viewBox="0,0,200,200" width="200mm" xmlns="http://www.w3.org/2000/svg" xmlns:ev="http://www.w3.org/2001/xml-events" xmlns:xlink="http://www.w3.org/1999/xlink"><defs /><rect fill="#1a1a1a" height="200" width="200" x="0" y="0" /><text alignment-baseline="middle" fill="#e1ed5e" style="dominant-baseline: central; font-size:9.0px; font-family:Arial;" text-anchor="middle" x="100.0" y="100.0">2021</text><line stroke="#e1ed5e" stroke-width="0.3" x1="100.0" x2="100.0" y1="15.0" y2="10.0" /><path d="M 100.0 14.0 a86.0,86.0 0 0,1 42.46469731375804,11.215312516191453" fill="none" id="id37" stroke="none" /><text fill="#e1ed5e" style="font-size:6.75px; font-family:Arial;" text-anchor="middle"><textPath startOffset="22.20632615414155" xlink:href="#id37">January</textPath></text><path d="M 101.08401301168833 79.027996857942 l 1.0709720346571576 -20.719704130584628 a41.747364178564546,41.747364178564546 0 0,0 0.7173349217399909,0.043271601436055115 l -1.4274690052367602 20.698199259768266" fill="#ff0000" stroke="none" /><path d="M 101.80526077348638 79.07773832637324 l 1.8003098174085161 -20.86488204176584 a41.94240716955575,41.94240716955575 0 0,0 0.718762783317767,0.06825518698772634 l -2.1591977278165273 20.830801310262935" fill="#ff0400" stroke="none" /><path d="M 102.52436894288641 79.15227682838746 l 2.624283648111947 -21.67287756165729 a42.83118151791918,42.83118151791918 0 0,0 0.7311594159419514,0.0949254766050093 l -2.9969577925617448 21.624493761888147" fill="#ff1702" stroke="none" /><path d="M 104.307194497241 79.44645832069477 l 4.252609198886574 -20.293065583897008 a41.73386591523153,41.73386591523153 0 0,0 0.7018389712935762,0.15339481528250962 l -4.601290894333678 20.21685727051863" fill="#ff0000" stroke="none" /><path d="M 104.66035177308747 79.52364482259891 l 4.668877923883094 -20.51381683276268 a42.03841966774739,42.03841966774739 0 0,0 0.704196203649634,0.16666048973703224 l -5.021297814495251 20.430410430884777" fill="#ff0701" stroke="none" /><path d="M 105.36241919743992 79.69619591428918 l 5.363085550458202 -20.306327107622547 a42.00260953365795,42.00260953365795 0 0,0 0.6974475524999435,0.19063876233216367 l -5.711830992181856 20.211001804464093" fill="#ff0600" stroke="none" /><path d="M 105.71112130821622 79.79150937346287 l 9.114957754696416 -32.252779866900845 a54.51602995601753,54.51602995601753 0 0,0 0.9008378897914652,0.2629792826315522 l -9.668785862211308 32.091102255350584" fill="#fffb17" stroke="none" /><path d="M 106.0581310904928 79.89281104454417 l 9.693558330527893 -32.17332310760588 a54.60190162615433,54.60190162615433 0 0,0 0.8975892913885188,0.2788853620751997 l -10.245932994627129 32.00169761064816" fill="#fffd17" stroke="none" /><path d="M 106.74666289553966 80.11325718540242 l 10.925677095253642 -32.204978051044186 a55.00780838657481,55.00780838657481 0 0,0 0.8940549961608172,0.3119182329304771 l -11.478414095477733 32.0121389649415" fill="#faff18" stroke="none" /><path d="M 107.08798089147638 80.2323363322302 l 7.241681822022729 -20.196320057647643 a42.45537926680288,42.45537926680288 0 0,0 0.6857911911108596,0.2525826833160698 l -7.588255338906165 20.068674106525247" fill="#ff0f01" stroke="none" /><path d="M 107.76421540070413 80.48803036053334 l 12.514842687583359 -31.450599701379012 a54.84909908803099,54.84909908803099 0 0,0 0.8742322953956589,0.3566213039575619 l -13.054358852567406 31.230517511237874" fill="#fdff18" stroke="none" /><path d="M 109.41281617654863 81.2277094730956 l 15.318814959624476 -30.55081917635008 a55.1762877462321,55.1762877462321 0 0,0 0.8453519960064398,0.43302212600415874 l -15.842427443219671 30.28260452503342" fill="#f7ff18" stroke="none" /><path d="M 109.73455568895987 81.39251694778311 l 15.663851581232047 -29.9412589688887 a54.79105258793996,54.79105258793996 0 0,0 0.8319237392186882,0.444384850147014 l -16.176920366979047 29.667195392239933" fill="#feff18" stroke="none" /><line stroke="#e1ed5e" stroke-width="0.3" x1="143.23703022742887" x2="145.7803849466894" y1="26.81831364943548" y2="22.513508569990506" /><path d="M 143.74570117128098 25.957352633546492 a86.0,86.0 0 0,1 28.547481713284135,27.462654790039103" fill="none" id="id38" stroke="none" /><text fill="#e1ed5e" style="font-size:6.75px; font-family:Arial;" text-anchor="middle"><textPath startOffset="19.985693538727396" xlink:href="#id38">February</textPath></text><path d="M 111.60114157652 82.49532879139004 l 18.81091484045917 -28.38331704199176 a55.05089137513476,55.05089137513476 0 0,0 0.7853804107012271,0.5302923591680784 l -19.29669994556694 28.05531277052501" fill="#f9ff18" stroke="none" /><path d="M 112.48926042617603 83.11751280151076 l 12.540200138541206 -16.95134548253122 a42.08565230631484,42.08565230631484 0 0,0 0.5786854273826567,0.4358538664975454 l -12.830131719682244 16.732975026527825" fill="#ff0801" stroke="none" /><path d="M 113.89432698308785 84.25364557470407 l 22.26151287672722 -25.228834201678872 a54.64623352972058,54.64623352972058 0 0,0 0.6999636375599255,0.6284342649739035 l -22.69248750188314 24.841900927935672" fill="#fffe18" stroke="none" /><path d="M 114.42810811169701 84.74124197986012 l 23.11882205717912 -24.449810657793655 a54.649267072456006,54.649267072456006 0 0,0 0.677954752222615,0.6521919344953094 l -23.536260053014153 24.048235636536045" fill="#fffe18" stroke="none" /><path d="M 116.15771136456269 86.58626213691792 l 26.020878246761505 -21.601898430661816 a54.81904966940105,54.81904966940105 0 0,0 0.5964874053522087,0.7312230294970972 l -26.388864144190123 21.150791231556617" fill="#fdff18" stroke="none" /><line stroke="#e1ed5e" stroke-width="0.3" x1="172.23445277983987" x2="176.4835382374775" y1="55.19839476539836" y2="52.563006222186495" /><path d="M 173.08426987136738 54.67131705675599 a86.0,86.0 0 0,1 12.851231095245387,41.99856678651699" fill="none" id="id39" stroke="none" /><text fill="#e1ed5e" style="font-size:6.75px; font-family:Arial;" text-anchor="middle"><textPath startOffset="22.20632615414155" xlink:href="#id39">March</textPath></text><path d="M 118.89224826269711 90.83032412892265 l 30.58850724977087 -14.846655250361145 a55.00117568397248,55.00117568397248 0 0,0 0.4060705532795226,0.8552881461089668 l -30.83953599689215 14.317924688611637" fill="#faff18" stroke="none" /><path d="M 119.7369772167798 92.82701384747503 l 31.844925613196637 -11.573363435686007 a54.882768902858295,54.882768902858295 0 0,0 0.31504517656508363,0.8906751385892235 l -32.03942387057153 11.023490670670169" fill="#fcff18" stroke="none" /><path d="M 120.53481517161879 95.60439243477599 l 33.77119744251508 -7.228939229516871 a55.53623226533817,55.53623226533817 0 0,0 0.19205144234938687,0.9365110385771066 l -33.890628180779466 6.646552534776352" fill="#f1ff19" stroke="none" /><path d="M 120.78858239683441 97.02765380044208 l 20.68856251210753 -2.958045381995025 a41.89896292401427,41.89896292401427 0 0,0 0.09593665584352326,0.7148395191517615 l -20.73641516700889 2.6014875207785995" fill="#ff0400" stroke="none" /><line stroke="#e1ed5e" stroke-width="0.3" x1="184.98032266829074" x2="189.97916517819016" y1="98.17113171792111" y2="98.06355123074" /><path d="M 185.9800911702706 98.14961562048488 a86.0,86.0 0 0,1 -9.607161424134198,41.387399972396054" fill="none" id="id40" stroke="none" /><text fill="#e1ed5e" style="font-size:6.75px; font-family:Arial;" text-anchor="middle"><textPath startOffset="21.466115282336823" xlink:href="#id40">April</textPath></text><path d="M 120.49622156327973 104.57218783832717 l 34.08268645097657 7.602983994272232 a55.920407805934076,55.920407805934076 0 0,0 -0.21766202318998795,0.9376822991580647 l -33.94676386185603 -8.18853495077886" fill="#eaff1a" stroke="none" /><path d="M 120.41448212921028 104.9243191809786 l 33.499899879558996 8.080743782460898 a55.46072709648271,55.46072709648271 0 0,0 -0.23184877809716772,0.9261206190245228 l -33.355839787166765 -8.656192240882817" fill="#f2ff19" stroke="none" /><path d="M 120.02730092923936 106.31721596034902 l 60.08190278771807 18.951647881047055 a84.0,84.0 0 0,0 -0.4468309959350121,1.375204400088819 l -59.746779540766816 -19.98305118111367" fill="#4dd2ff" stroke="none" /><line stroke="#e1ed5e" stroke-width="0.3" x1="174.80103733775053" x2="179.2010983576182" y1="140.37084112569926" y2="142.7455964860345" /><path d="M 175.68104954172406 140.8457921977663 a86.0,86.0 0 0,1 -30.038265399797805,32.042727171017184" fill="none" id="id41" stroke="none" /><text fill="#e1ed5e" style="font-size:6.75px; font-family:Arial;" text-anchor="middle"><textPath startOffset="22.206326154141568" xlink:href="#id41">May</textPath></text><line stroke="#e1ed5e" stroke-width="0.3" x1="143.8653032363475" x2="146.44561519142675" y1="172.8068346515853" y2="177.08958963109032" /><path d="M 144.38136562736335 173.6633856474863 a86.0,86.0 0 0,1 -40.68145358897372,12.25698825130547" fill="none" id="id42" stroke="none" /><text fill="#e1ed5e" style="font-size:6.75px; font-family:Arial;" text-anchor="middle"><textPath startOffset="21.466115282336833" xlink:href="#id42">June</textPath></text><line stroke="#e1ed5e" stroke-width="0.3" x1="102.19456741930631" x2="102.32365962044197" y1="184.97166512339345" y2="189.96999836594603" /><path d="M 102.22038585953345 185.97133177190398 a86.0,86.0 0 0,1 -42.740103519485714,-10.115201625700543" fill="none" id="id43" stroke="none" /><text fill="#e1ed5e" style="font-size:6.75px; font-family:Arial;" text-anchor="middle"><textPath startOffset="22.20632615414155" xlink:href="#id43">July</textPath></text><line stroke="#e1ed5e" stroke-width="0.3" x1="58.666819895761336" x2="56.23545636021788" y1="174.27360380694188" y2="178.64263932499728" /><path d="M 58.180547188652646 175.14741091055294 a86.0,86.0 0 0,1 -31.652253787137756,-30.449443065178592" fill="none" id="id44" stroke="none" /><text fill="#e1ed5e" style="font-size:6.75px; font-family:Arial;" text-anchor="middle"><textPath startOffset="22.20632615414155" xlink:href="#id44">August</textPath></text><line stroke="#e1ed5e" stroke-width="0.3" x1="26.63291911575756" x2="22.317208475507996" y1="142.92168965132927" y2="145.44649492493687" /><path d="M 25.769776987707644 143.4266507060508 a86.0,86.0 0 0,1 -11.730757126820373,-40.83630448921669" fill="none" id="id45" stroke="none" /><text fill="#e1ed5e" style="font-size:6.75px; font-family:Arial;" text-anchor="middle"><textPath startOffset="21.46611528233685" xlink:href="#id45">September</textPath></text><line stroke="#e1ed5e" stroke-width="0.3" x1="15.007084014347285" x2="10.007500721073583" y1="101.09737516637583" y2="101.16192664675087" /><path d="M 14.007167355692545 101.11028546245083 a86.0,86.0 0 0,1 10.666146001902534,-42.60595125391555" fill="none" id="id46" stroke="none" /><text fill="#e1ed5e" style="font-size:6.75px; font-family:Arial;" text-anchor="middle"><textPath startOffset="22.20632615414155" xlink:href="#id46">October</textPath></text><line stroke="#e1ed5e" stroke-width="0.3" x1="26.266209847984243" x2="21.928928074336255" y1="57.711370442889674" y2="55.22380399835377" /><path d="M 25.398753493254645 57.213857153982495 a86.0,86.0 0 0,1 29.58750427330803,-30.492523968695096" fill="none" id="id47" stroke="none" /><text fill="#e1ed5e" style="font-size:6.75px; font-family:Arial;" text-anchor="middle"><textPath startOffset="21.46611528233685" xlink:href="#id47">November</textPath></text><line stroke="#e1ed5e" stroke-width="0.3" x1="56.762969772571076" x2="54.21961505331055" y1="26.818313649435495" y2="22.513508569990535" /><path d="M 56.25429882871897 25.957352633546506 a86.0,86.0 0 0,1 42.265352541879196,-11.944610805530505" fill="none" id="id48" stroke="none" /><text fill="#e1ed5e" style="font-size:6.75px; font-family:Arial;" text-anchor="middle"><textPath startOffset="22.20632615414155" xlink:href="#id48">December</textPath></text></svg>