<?xml version="1.0" encoding="utf-8" ?>
<svg baseProfile="full" height="200mm" version="1.1" viewBox="0,0,200,200" width="200mm" xmlns="http://www.w3.org/2000/svg" xmlns:ev="http://www.w3.org/2001/xml-events" xmlns:xlink="http://www.w3.org/1999/xlink"><defs /><rect fill="#1a1a1a" height="200" width="200" x="0" y="0" /><text alignment-baseline="middle" fill="#e1ed5e" style="dominant-baseline: central; font-size:9.0px; font-family:Arial;" text-anchor="middle" x="100.0" y="100.0">2020</text><line stroke="#e1ed5e" stroke-width="0.3" x1="100.0" x2="100.0" y1="15.0" y2="10.0" /><path d="M 100.0 14.0 a86.0,86.0 0 0,1 42.35913384403234,11.155469271406648" fill="none" id="id25" stroke="none" /><text fill="#e1ed5e" style="font-size:6.75px; font-family:Arial;" text-anchor="middle"><textPath startOffset="22.145653131862478" xlink:href="#id25">January</textPath></text><path d="M 102.15924093988457 79.11130261209362 l 2.4721680754526916 -23.915983559914725 a45.04341665885693,45.04341665885693 0 0,0 0.7684494789573825,0.08610636694940244 l -2.8823534560108706 23.87002143245835" fill="#f7ff19" stroke="none" /><path d="M 103.58742460773223 79.30868818359171 l 3.9077566736400238 -22.53890204763056 a43.87515393900254,43.87515393900254 0 0,0 0.7409996743935653,0.13503482467238836 l -4.294091081584643 22.468499049026807" fill="#fff817" stroke="none" /><path d="M 106.04205211174951 79.88797359093562 l 7.235786709120555 -24.08558064257606 a46.14899211081669,46.14899211081669 0 0,0 0.7567541769949033,0.23444437846028893 l -7.648181518987089 23.95781967630912" fill="#e8ff1a" stroke="none" /><path d="M 109.71004243097381 81.37971332152246 l 11.488808206772577 -22.03130459263055 a45.846953456415314,45.846953456415314 0 0,0 0.6947149215211621,0.36989656573644786 l -11.865311944080299 21.83083755917153" fill="#ecff1a" stroke="none" /><line stroke="#e1ed5e" stroke-width="0.3" x1="143.13028292997686" x2="145.6673583964461" y1="26.7553504044142" y2="22.446841604673864" /><path d="M 143.63769802327073 25.89364864446614 a86.0,86.0 0 0,1 29.32050498858742,28.57503671076993" fill="none" id="id26" stroke="none" /><text fill="#e1ed5e" style="font-size:6.75px; font-family:Arial;" text-anchor="middle"><textPath startOffset="20.669276256404974" xlink:href="#id26">February</textPath></text><path d="M 112.45986205192187 83.09580414077388 l 14.566536157196262 -19.762303881507574 a45.55061364454981,45.55061364454981 0 0,0 0.6254468236993526,0.46934695662517734 l -14.903635969806382 19.509337897618384" fill="#f0ff19" stroke="none" /><path d="M 114.39649973595853 84.71141617570332 l 4.5319203177654215 -4.812742328618308 a27.610657341615084,27.610657341615084 0 0,0 0.34227684711272977,0.3278934769184752 l -4.613869650743464 4.734236721394253" fill="#ff0c01" stroke="none" /><path d="M 116.35404254752997 86.82634096563983 l 8.91604850602283 -7.18213754249412 a32.44897465457302,32.44897465457302 0 0,0 0.3457107105471046,0.43679418929837555 l -9.038025647211496 7.028023409281066" fill="#ff5708" stroke="none" /><path d="M 117.21940702142032 87.97951657250589 l 15.462592880195182 -10.794090715856925 a39.85746995121062,39.85746995121062 0 0,0 0.3868267352681672,0.5643917672133009 l -15.645609352278674 10.527064213573576" fill="#ffc112" stroke="none" /><line stroke="#e1ed5e" stroke-width="0.3" x1="172.87174338648825" x2="177.1583165268699" y1="56.24261187166439" y2="53.66864786411523" /><path d="M 173.72905801456457 55.72781907015455 a86.0,86.0 0 0,1 12.242430191666344,42.057860355516425" fill="none" id="id27" stroke="none" /><text fill="#e1ed5e" style="font-size:6.75px; font-family:Arial;" text-anchor="middle"><textPath startOffset="22.145653131862474" xlink:href="#id27">March</textPath></text><path d="M 118.70294669586156 90.45014215332178 l 17.200812722401395 -8.782857536701155 a40.313377354080615,40.313377354080615 0 0,0 0.30941493622184335,0.619037141292413 l -17.349047571834976 8.48628853924499" fill="#ffc812" stroke="none" /><path d="M 119.4528033332814 92.08871423366111 l 17.468126396388744 -7.104134934008373 a39.85746995121062,39.85746995121062 0 0,0 0.25231927941961046,0.6360094112900745 l -17.58750435077448 6.803224505504733" fill="#ffc112" stroke="none" /><path d="M 120.05942366710727 93.78553927170692 l 25.481468604977586 -7.8942241099642745 a47.676281910431214,47.676281910431214 0 0,0 0.23548378134735323,0.7838489211561772 l -25.613228706328567 7.4556375852173735" fill="#d5ff1c" stroke="none" /><path d="M 120.51834098615036 95.52812308129327 l 8.391176529849341 -1.8288178693372614 a29.588155701563736,29.588155701563736 0 0,0 0.10389992066277966,0.49719873256608593 l -8.421334161336487 1.6845026854857712" fill="#ff2b04" stroke="none" /><path d="M 120.86939407059847 97.66154086499901 l 11.179550718981764 -1.252691976373228 a32.24951516581739,32.24951516581739 0 0,0 0.05692439861062271,0.550691918906197 l -11.199407510074051 1.0605955351840997" fill="#ff5407" stroke="none" /><line stroke="#e1ed5e" stroke-width="0.3" x1="184.99686870605535" x2="189.99668451229388" y1="99.2704041080226" y2="99.22748670261217" /><path d="M 185.99683186730306 99.26182062694052 a86.0,86.0 0 0,1 -10.086455211305974,41.156179273409016" fill="none" id="id28" stroke="none" /><text fill="#e1ed5e" style="font-size:6.75px; font-family:Arial;" text-anchor="middle"><textPath startOffset="21.40746469413373" xlink:href="#id28">April</textPath></text><path d="M 120.65975698304385 103.76489593502545 l 11.34196894736992 2.0668845630751758 a32.52875845007527,32.52875845007527 0 0,0 -0.10482579484641127,0.5484928538010738 l -11.30481686024135 -2.261279981909564" fill="#ff5808" stroke="none" /><path d="M 120.16314734710363 105.8691983318838 l 10.571407361808754 3.0771826136808285 a32.01016377931064,32.01016377931064 0 0,0 -0.15810533259412482,0.5262812312332483 l -10.517025709211 -3.2582014485048" fill="#ff5007" stroke="none" /><path d="M 118.5362547648365 109.86951160357373 l 12.329136576942586 6.5645707858425295 a34.9678630554298,34.9678630554298 0 0,0 -0.28666096376220107,0.5274238860252085 l -12.214630263565047 -6.775249505342342" fill="#ff7c0b" stroke="none" /><line stroke="#e1ed5e" stroke-width="0.3" x1="174.33088141563837" x2="178.70328620479359" y1="141.23008692659167" y2="143.65538615756765" /><path d="M 175.20536237346943 141.71514677278685 a86.0,86.0 0 0,1 -30.301960400862466,31.631185727798858" fill="none" id="id29" stroke="none" /><text fill="#e1ed5e" style="font-size:6.75px; font-family:Arial;" text-anchor="middle"><textPath startOffset="22.145653131862474" xlink:href="#id29">May</textPath></text><path d="M 118.00360718960297 110.81064883170644 l 12.61976586150937 7.57780680451203 a35.72011027016531,35.72011027016531 0 0,0 -0.32017471743002957,0.5229813388578025 l -12.487823179623936 -7.79332525949439" fill="#ff870c" stroke="none" /><path d="M 117.01052211995028 112.31430620078461 l 9.250873103680544 6.696918720073821 a32.420480441893645,32.420480441893645 0 0,0 -0.3302226328877644,0.4480104226052046 l -9.13454845120895 -6.854735451947903" fill="#ff5608" stroke="none" /><path d="M 115.16444852881244 114.52719865689866 l 4.87654610029834 4.671620852150187 a27.75312840501196,27.75312840501196 0 0,0 -0.3325263531455932,0.3412013323002095 l -4.795632946001939 -4.7546448765181335" fill="#ff0e01" stroke="none" /><path d="M 113.59037401385872 116.0094264158162 l 7.542096480245095 8.884570689396874 a32.65413298586452,32.65413298586452 0 0,0 -0.43045248124657015,0.3590987694289006 l -7.38846966483663 -9.012731642737643" fill="#ff5a08" stroke="none" /><path d="M 112.45986205192187 116.90419585922612 l 6.485286989206691 8.798537336288653 a31.930379983808386,31.930379983808386 0 0,0 -0.4440132048212859,0.32143131896864924 l -6.333292774011437 -8.908569426630379" fill="#ff4f07" stroke="none" /><line stroke="#e1ed5e" stroke-width="0.3" x1="143.1302829299769" x2="145.66735839644613" y1="173.24464959558577" y2="177.55315839532614" /><path d="M 143.63769802327073 174.10635135553383 a86.0,86.0 0 0,1 -40.68552437913181,11.842963189579606" fill="none" id="id30" stroke="none" /><text fill="#e1ed5e" style="font-size:6.75px; font-family:Arial;" text-anchor="middle"><textPath startOffset="21.407464694133747" xlink:href="#id30">June</textPath></text><path d="M 110.02825361518725 118.45085714620011 l 2.7894368675876855 5.132249655539178 a26.84131359927195,26.84131359927195 0 0,0 -0.40672410410803844,0.2165576766112623 l -2.7009239476930937 -5.179377799873008" fill="#ff0000" stroke="none" /><path d="M 109.3889696526874 118.78422872680471 l 2.7364629922384993 5.4747590683639675 a27.12055688352983,27.12055688352983 0 0,0 -0.4182244943350556,0.20457455767594723 l -2.6420782486413743 -5.520927376137138" fill="#ff0400" stroke="none" /><path d="M 109.06512990194946 118.94263497670748 l 2.875781631901085 6.009277563039397 a27.66194692443796,27.66194692443796 0 0,0 -0.43009227938649386,0.20130490338516657 l -2.7722006386430853 -6.057758697995097" fill="#ff0d01" stroke="none" /><line stroke="#e1ed5e" stroke-width="0.3" x1="101.45913802915013" x2="101.54496967792366" y1="184.9874750549273" y2="189.98673829345242" /><path d="M 101.47630435890484 185.9873277026323 a86.0,86.0 0 0,1 -42.54439059252881,-10.42667462771756" fill="none" id="id31" stroke="none" /><text fill="#e1ed5e" style="font-size:6.75px; font-family:Arial;" text-anchor="middle"><textPath startOffset="22.145653131862474" xlink:href="#id31">July</textPath></text><path d="M 99.27912038922189 120.98762331915562 l -0.2365137562609108 6.885839954392201 a27.88990062587296,27.88990062587296 0 0,0 -0.47834398784961835,-0.020542149025768112 l 0.3546835047113679 -6.880765236940604" fill="#ff1101" stroke="none" /><path d="M 97.12497278360702 120.80226474461374 l -3.483620086088778 25.20573957953364 a46.4453319226822,46.4453319226822 0 0,0 -0.7888516123113664,-0.1159340214125788 l 3.915796804007829 -25.14222448482218" fill="#e5ff1a" stroke="none" /><path d="M 92.93061703081489 119.77432235084164 l -6.369230343764154 17.815870846628123 a39.920157219105235,39.920157219105235 0 0,0 -0.6433054414580168,-0.23623066881222107 l 6.674124936876289 -17.703909328807182" fill="#ffc212" stroke="none" /><line stroke="#e1ed5e" stroke-width="0.3" x1="58.13341422392154" x2="55.67067388415222" y1="173.97424548756322" y2="178.32567169271397" /><path d="M 57.64086615596768 174.84453072859336 a86.0,86.0 0 0,1 -31.369924170532247,-30.572349798747897" fill="none" id="id32" stroke="none" /><text fill="#e1ed5e" style="font-size:6.75px; font-family:Arial;" text-anchor="middle"><textPath startOffset="22.145653131862474" xlink:href="#id32">August</textPath></text><path d="M 88.1277618465304 117.32195027204791 l -3.7179690579012514 5.424627968329381 a27.576464286399833,27.576464286399833 0 0,0 -0.38817801005386365,-0.27097839844111044 l 3.8105421591288806 -5.360004754083142" fill="#ff0c01" stroke="none" /><path d="M 87.2517909369889 116.68781488649013 l -5.462590806946212 7.150706717813236 a29.99847236414674,29.99847236414674 0 0,0 -0.40653651957005205,-0.3161252565318272 l 5.5845372711514925 -7.055880409660615" fill="#ff3104" stroke="none" /><path d="M 86.68645165197938 116.24036423190432 l -11.817938520137218 14.415963424642957 a39.64091393484736,39.64091393484736 0 0,0 -0.5225534473545346,-0.4359326710405315 l 12.063666301653646 -14.210968569690555" fill="#ffbe11" stroke="none" /><path d="M 86.40962598614128 116.0094264158162 l -12.14480376990078 14.306548303268416 a39.76628847063661,39.76628847063661 0 0,0 -0.5166218813551982,-0.4462456765812372 l 12.38860513101884 -14.095958494222456" fill="#ffc011" stroke="none" /><path d="M 85.86807049272751 115.53346607816431 l -12.766816612181819 14.032967873878523 a39.97144680192811,39.97144680192811 0 0,0 -0.5035835629189387,-0.46610942777171127 l 13.005829946414725 -13.811740699974434" fill="#ffc312" stroke="none" /><path d="M 85.08716467003676 114.78537596483092 l -13.326598557961503 13.212696690611153 a39.76628847063661,39.76628847063661 0 0,0 -0.47646300230745536,-0.4888930144669874 l 13.55144836141977 -12.981980984076428" fill="#ffc011" stroke="none" /><path d="M 84.58840730492382 114.26474011684316 l -13.93123178226735 12.894540156452468 a39.982844486999866,39.982844486999866 0 0,0 -0.4619014285441779,-0.5077105831906604 l 14.150530911653409 -12.653491997704133" fill="#ffc312" stroke="none" /><path d="M 84.3458050057657 113.99807769240083 l -14.08256078418824 12.592712690600177 a39.89166300642586,39.89166300642586 0 0,0 -0.45208449694388875,-0.51438916951568 l 14.296656345090723 -12.349111243273196" fill="#ffc212" stroke="none" /><path d="M 83.8745106332314 113.45245675266167 l -14.760348341151156 12.313607556168554 a40.22219587350662,40.22219587350662 0 0,0 -0.43775765733794253,-0.5339931635528499 l 14.96955281772773 -12.058412110917208" fill="#ffc612" stroke="none" /><path d="M 82.576782715395 111.72311816256416 l -15.683434941525645 10.552514958121348 a39.903060691497615,39.903060691497615 0 0,0 -0.3775125224601707,-0.5716020748504831 l 15.862271902906542 -10.281733004931805" fill="#ffc212" stroke="none" /><path d="M 82.37810715431573 111.42229804090323 l -15.737936940749298 10.201140584633876 a39.75489078556486,39.75489078556486 0 0,0 -0.3662794303977013,-0.5758521019815095 l 15.910734062772889 -9.929474807973694" fill="#ffc011" stroke="none" /><path d="M 81.99639281039703 110.81064883170644 l -16.117927826991647 9.678352554427104 a39.800481525851865,39.800481525851865 0 0,0 -0.3466930676463196,-0.5887606232076037 l 16.281694604767736 -9.400240762925941" fill="#ffc111" stroke="none" /><line stroke="#e1ed5e" stroke-width="0.3" x1="26.387840678322732" x2="22.057713659400548" y1="142.50000000000003" y2="145.00000000000006" /><path d="M 25.521815274538298 143.00000000000003 a86.0,86.0 0 0,1 -11.493303480769221,-40.785679425670985" fill="none" id="id33" stroke="none" /><text fill="#e1ed5e" style="font-size:6.75px; font-family:Arial;" text-anchor="middle"><textPath startOffset="21.40746469413373" xlink:href="#id33">September</textPath></text><path d="M 81.81346652052679 110.50000000000001 l -16.247147207910082 9.380294814050375 a39.76058962810073,39.76058962810073 0 0,0 -0.3361978145251302,-0.5940293244135091 l 16.405778387456593 -9.100008719537744" fill="#ffc011" stroke="none" /><path d="M 81.63589988554817 110.18625677009913 l -16.4207289752945 9.108301558589575 a39.777686155708366,39.777686155708366 0 0,0 -0.3260911263451008,-0.5999709440659744 l 16.57466545125493 -8.825075781049014" fill="#ffc011" stroke="none" /><path d="M 81.4637452351635 109.86951160357371 l -16.73060312317872 8.908103808124132 a39.95435027432049,39.95435027432049 0 0,0 -0.317146085717988,-0.6081694366431039 l 16.88105727787166 -8.619588128376524" fill="#ffc312" stroke="none" /><path d="M 81.1358732173502 109.22738970284198 l -16.939509712364107 8.285963049973942 a39.85746995121062,39.85746995121062 0 0,0 -0.29536424045942417,-0.6171976632118789 l 17.079253210783442 -7.9939528846969585" fill="#ffc112" stroke="none" /><path d="M 80.9802524753101 108.90220220490708 l -16.83666484544442 7.8804092807136525 a39.58962435202449,39.58962435202449 0 0,0 -0.28281231825505987,-0.6179959548845374 l 16.969461628554537 -7.590224343614426" fill="#ffbe11" stroke="none" /><path d="M 80.68587082218212 108.24405325689762 l -17.107740117329225 7.3022769669784555 a39.601022037096236,39.601022037096236 0 0,0 -0.2615065850707784,-0.6275206060402396 l 17.23057254693649 -7.007523851496934" fill="#ffbe11" stroke="none" /><path d="M 80.5471966667186 107.91128576633889 l -17.54731101287282 7.136338628178863 a39.94295258924874,39.94295258924874 0 0,0 -0.25286043061809516,-0.6373734658163829 l 17.66723011845704 -6.834064145148915" fill="#ffc312" stroke="none" /><path d="M 80.05021161711548 106.5578916946017 l -45.671179394580754 15.013023811888658 a69.0754356326421,69.0754356326421 0 0,0 -0.36062404849498353,-1.1296496955955404 l 45.92216815885299 -14.226805082601725" fill="#39ff89" stroke="none" /><path d="M 79.17382384314188 102.69636545807758 l -18.740942226969874 2.426390178015883 a39.89736184896174,39.89736184896174 0 0,0 -0.08210860680264322,-0.6799770514199307 l 18.779832920032177 -2.104319449672553" fill="#ffc212" stroke="none" /><path d="M 79.03789590574601 101.26102812881392 l -18.937211556219957 1.1392156219775333 a39.97144680192811,39.97144680192811 0 0,0 -0.03532411998880701,-0.6852784908683612 l 18.953977265665337 -0.8139653377324413" fill="#ffc312" stroke="none" /><line stroke="#e1ed5e" stroke-width="0.3" x1="15.003131293944662" x2="10.003315487706104" y1="100.72959589197737" y2="100.7725132973878" /><path d="M 14.003168132696942 100.73817937305945 a86.0,86.0 0 0,1 10.791469493833604,-42.45332614584628" fill="none" id="id34" stroke="none" /><text fill="#e1ed5e" style="font-size:6.75px; font-family:Arial;" text-anchor="middle"><textPath startOffset="22.145653131862435" xlink:href="#id34">October</textPath></text><path d="M 79.00077361379809 99.81974689727619 l -25.142367020728347 -0.21581698210963784 a46.143293268280814,46.143293268280814 0 0,0 0.013598139364455676,-0.7920234459950611 l 25.134957449765224 0.6473873440737513" fill="#e8ff1a" stroke="none" /><path d="M 79.00696218219943 99.45929381324524 l -18.73727902363505 -0.48260584194437184 a39.74349310049311,39.74349310049311 0 0,0 0.023420865093196012,-0.6818729327831453 l 18.726233471545 0.8041850392916556" fill="#ffc011" stroke="none" /><path d="M 79.2786578344484 96.59031103205396 l -18.528517138560687 -3.0488604442224707 a39.777686155708366,39.777686155708366 0 0,0 0.11665314579218686,-0.6728243455621761 l 18.47344917527627 3.3664778227052397" fill="#ffc011" stroke="none" /><path d="M 79.48165901384962 95.52812308129327 l -18.475065511639094 -4.026554539124765 a39.90875953403349,39.90875953403349 0 0,0 0.15163264473918978,-0.6681214108214496 l 18.403222005342244 4.343110283885223" fill="#ffc212" stroke="none" /><path d="M 79.83685265289637 94.1308016681162 l -24.294538657572915 -7.071786130819298 a46.30286085928532,46.30286085928532 0 0,0 0.22870014869928434,-0.7612684143277211 l 24.16956218887 7.487792148737743" fill="#e6ff1a" stroke="none" /><path d="M 80.05021161711548 93.44210830539832 l -14.000197950970348 -4.602143145749648 a35.737206797772934,35.737206797772934 0 0,0 0.19657944654409298,-0.5811522038290508 l 13.919133082853891 4.841797024052861" fill="#ff870c" stroke="none" /><path d="M 80.16572619554312 93.10060997987247 l -20.51807243303907 -7.137250678920923 a42.723987746755775,42.723987746755775 0 0,0 0.24690361371385397,-0.6906333506682584 l 20.392528649281275 7.488418985970102" fill="#ffe915" stroke="none" /><path d="M 80.28708602549916 92.7611449362534 l -17.605407078904687 -6.46494933967146 a39.75489078556486,39.75489078556486 0 0,0 0.2407429655348602,-0.6385993180661207 l 17.491833429555392 6.766216937931726" fill="#ffc011" stroke="none" /><path d="M 80.41425534168474 92.42381321644754 l -6.659759127083837 -2.576137898276649 a28.140649697451465,28.140649697451465 0 0,0 0.17814548848062525,-0.4490430042173755 l 6.61455496363708 2.6900819197076076" fill="#ff1402" stroke="none" /><path d="M 80.83023694016515 91.42560881287825 l -22.77507756278718 -10.18700250654318 a45.949532622061064,45.949532622061064 0 0,0 0.3282449393313799,-0.7172744312189522 l 22.596848158600757 10.576465919976805" fill="#ebff1a" stroke="none" /><path d="M 81.46374523516351 90.13048839642627 l -22.097877185846087 -11.765874933580678 a46.035015260099186,46.035015260099186 0 0,0 0.377387712264494,-0.6943508845027878 l 21.892644123966242 12.143480651558086" fill="#eaff1a" stroke="none" /><path d="M 81.63589988554816 89.8137432299009 l -21.98733118027295 -12.19600196555299 a46.143293268280814,46.143293268280814 0 0,0 0.39016711011813054,-0.689387898488316 l 21.77473070513345 12.57164663414041" fill="#e8ff1a" stroke="none" /><line stroke="#e1ed5e" stroke-width="0.3" x1="26.387840678322718" x2="22.05771365940052" y1="57.49999999999999" y2="54.99999999999999" /><path d="M 25.521815274538284 56.99999999999999 a86.0,86.0 0 0,1 29.574782752854787,-30.34633250058573" fill="none" id="id35" stroke="none" /><text fill="#e1ed5e" style="font-size:6.75px; font-family:Arial;" text-anchor="middle"><textPath startOffset="21.40746469413373" xlink:href="#id35">November</textPath></text><path d="M 82.18462484594161 88.88188828441811 l -16.07994575897376 -10.03507542124597 a39.95435027432049,39.95435027432049 0 0,0 0.3681171390792041,-0.5787412852641307 l 15.905310928268666 10.309630381188773" fill="#ffc312" stroke="none" /><path d="M 82.576782715395 88.27688183743585 l -17.37140186167176 -11.688254433565817 a41.937547476805015,41.937547476805015 0 0,0 0.4070144089794248,-0.5938461864739581 l 17.168197715877024 11.984735355109809" fill="#ffde14" stroke="none" /><path d="M 83.2033758604659 87.39550010848427 l -15.174107681673943 -11.386933293180924 a39.97144680192811,39.97144680192811 0 0,0 0.4165558140423565,-0.5452849322027115 l 14.97639989027728 11.645739138624519" fill="#ffc312" stroke="none" /><path d="M 83.42222388311158 87.10902102172516 l -19.718101747998 -15.332915183115434 a45.97802683474044,45.97802683474044 0 0,0 0.48984895503783527,-0.6189081525874591 l 19.4519863623186 15.669143279617577" fill="#ebff1a" stroke="none" /><path d="M 83.64595745247003 86.82634096563983 l -19.50080494547751 -15.708468074524214 a46.040714102635064,46.040714102635064 0 0,0 0.5010834120324816,-0.6112402876565084 l 19.2282747142064 16.040910643879215" fill="#eaff1a" stroke="none" /><path d="M 83.8745106332314 86.54754324733833 l -18.878192334339193 -15.748859471482689 a45.58480669976506,45.58480669976506 0 0,0 0.5064372964063094,-0.5965818617481636 l 18.60506047442577 16.07060811568041" fill="#f0ff19" stroke="none" /><path d="M 84.58840730492382 85.73525988315684 l -18.389560536364307 -17.021102692261042 a46.05781063024269,46.05781063024269 0 0,0 0.5420437718163817,-0.5756317017221748 l 18.094660930811653 17.33427585392773" fill="#eaff1a" stroke="none" /><path d="M 85.86807049272753 84.46653392183569 l -16.83578399744012 -18.50547580844901 a46.017918732491566,46.017918732491566 0 0,0 0.5888868645818787,-0.5265862655657192 l 16.51563210603485 18.79175760389813" fill="#eaff1a" stroke="none" /><path d="M 87.83215693770416 82.88440491214696 l -14.558648509184795 -20.47856235767119 a46.126196740673194,46.126196740673194 0 0,0 0.6492919134298885,-0.4532561821252658 l 14.204961504581142 20.725463355601583" fill="#e9ff1a" stroke="none" /><line stroke="#e1ed5e" stroke-width="0.3" x1="56.869717070023135" x2="54.33264160355391" y1="26.7553504044142" y2="22.446841604673864" /><path d="M 56.362301976729285 25.89364864446614 a86.0,86.0 0 0,1 42.16139366436587,-11.88097634709845" fill="none" id="id36" stroke="none" /><text fill="#e1ed5e" style="font-size:6.75px; font-family:Arial;" text-anchor="middle"><textPath startOffset="22.145653131862474" xlink:href="#id36">December</textPath></text><path d="M 89.34428304082924 81.90426304109057 l -21.002262521628992 -35.66643329487764 a62.39069333806065,62.39069333806065 0 0,0 0.9275640188359293,-0.535529335965532 l 20.386906034932665 36.02170952811935" fill="#30ff35" stroke="none" /><path d="M 90.28995756902619 81.37971332152246 l -8.703562730956389 -16.69022914437126 a39.82327689599536,39.82327689599536 0 0,0 0.6088652454031686,-0.3108909326394947 l 8.415770263839637 16.83717802868359" fill="#ffc111" stroke="none" /><path d="M 91.26138138417902 80.90454125486306 l -16.151803720956437 -35.294606066761844 a59.814816511845116,59.814816511845116 0 0,0 0.937345448795174,-0.41926269669330635 l 15.543544869305645 35.566672514364996" fill="#46ff2c" stroke="none" /><path d="M 93.95794788825049 79.88797359093562 l -5.319032876588961 -17.705330524476942 a39.48704518637874,39.48704518637874 0 0,0 0.650859301519018,-0.18945565694709326 l 5.014313562688319 17.794029875726554" fill="#ffbc11" stroke="none" /><path d="M 94.30408787586887 79.78721728523814 l -10.524803035864599 -37.348813015974756 a59.80341882677337,59.80341882677337 0 0,0 0.9905114931259541,-0.2699683120604365 l 9.882110141803967 37.52398182217933" fill="#47ff2c" stroke="none" /><path d="M 94.6519064749342 79.69241777938228 l -14.567005359566224 -55.313292047174905 a78.1992825325781,78.1992825325781 0 0,0 1.3010673995455206,-0.3307262451799853 l 13.615332666795325 55.55520352419015" fill="#45fff1" stroke="none" /><path d="M 96.05791012581881 79.37332000966035 l -2.114942712604254 -11.06627396206943 a32.2665612358507,32.2665612358507 0 0,0 0.5449442161002248,-0.0993069892204087 l 1.9246637629529908 11.1009491252212" fill="#ff5407" stroke="none" /><path d="M 96.76829788921471 79.25015418208739 l -2.23423900549716 -14.345417150210997 a35.51836137955151,35.51836137955151 0 0,0 0.6032622759066484,-0.08865878008087778 l 1.987651623982827 14.38165700359076" fill="#ff840c" stroke="none" /><path d="M 97.12497278360702 79.19773525538626 l -2.492991714311892 -18.03804616232745 a39.20950622729468,39.20950622729468 0 0,0 0.6675365747128034,-0.08642597414438834 l 2.1829773177082945 18.078183732672233" fill="#ffb811" stroke="none" /><path d="M 97.84075906011542 79.11130261209362 l -3.826471832718791 -37.01764388613482 a58.21488741844163,58.21488741844163 0 0,0 0.9949213577128984,-0.09422008699124759 l 3.1904509116208772 37.077875728631255" fill="#58ff2a" stroke="none" /><path d="M 99.27912038922189 79.0123766808444 l -1.159669289710863 -33.7625060597473 a54.78241625899444,54.78241625899444 0 0,0 0.9401358782274286,-0.024214565331593867 l 0.5799200974126903 33.77743834242894" fill="#7fff26" stroke="none" /><path d="M 99.63950707515114 79.00309439819443 l -1.081478774546572 -62.990716805416696 a84.0,84.0 0 0,0 1.4419716993954086,-0.012377592777739643 l 1.543054966925665e-14 63.0" fill="#4dd2ff" stroke="none" /></svg>