<?xml version="1.0" encoding="utf-8" ?>
<svg baseProfile="full" height="200mm" version="1.1" viewBox="0,0,200,200" width="200mm" xmlns="http://www.w3.org/2000/svg" xmlns:ev="http://www.w3.org/2001/xml-events" xmlns:xlink="http://www.w3.org/1999/xlink"><defs /><rect fill="#1a1a1a" height="200" width="200" x="0" y="0" /><text alignment-baseline="middle" fill="#e1ed5e" style="dominant-baseline: central; font-size:9.0px; font-family:Arial;" text-anchor="middle" x="100.0" y="100.0">2021</text><line stroke="#e1ed5e" stroke-width="0.3" x1="100.0" x2="100.0" y1="15.0" y2="10.0" /><path d="M 100.0 14.0 a86.0,86.0 0 0,1 42.46469731375804,11.215312516191453" fill="none" id="id37" stroke="none" /><text fill="#e1ed5e" style="font-size:6.75px; font-family:Arial;" text-anchor="middle"><textPath startOffset="22.20632615414155" xlink:href="#id37">January</textPath></text><path d="M 101.08401301168833 79.027996857942 l 1.9536363337212534 -37.79628739458415 a58.84674405729555,58.84674405729555 0 0,0 1.011149455147346,0.06099529646387352 l -2.6039478377082115 37.75705882873997" fill="#ff0100" stroke="none" /><path d="M 101.80526077348638 79.07773832637324 l 3.28407330670429 -38.0611167579654 a59.2025358627838,59.2025358627838 0 0,0 1.01454786045498,0.09634354411577477 l -3.938746294249514 37.99894766933445" fill="#ff0e01" stroke="none" /><path d="M 102.52436894288641 79.15227682838746 l 4.787142632144728 -39.53503890911592 a60.82381242580634,60.82381242580634 0 0,0 1.0383067100310965,0.134802010564145 l -5.46696407068367 39.44677857538764" fill="#ff4606" stroke="none" /><path d="M 104.307194497241 79.44645832069477 l 7.757487194071917 -37.018025648056124 a58.822120914173105,58.822120914173105 0 0,0 0.9892123800743412,0.21620351180698835 l -8.393542298299787 36.879008638153266" fill="#ff0000" stroke="none" /><path d="M 104.66035177308747 79.52364482259891 l 8.516832610598463 -37.420713716971356 a59.377679096116296,59.377679096116296 0 0,0 0.9946505251978205,0.23540164344473205 l -9.159706822758807 37.268566161385756" fill="#ff1402" stroke="none" /><path d="M 105.36241919743992 79.69619591428918 l 9.783186164692603 -37.04221693760647 a59.31235528110654,59.31235528110654 0 0,0 0.9848734991254777,0.2692031311229579 l -10.419357553041792 36.868327265657214" fill="#ff1201" stroke="none" /><path d="M 105.71112130821622 79.79150937346287 l 16.627243358048784 -58.83459191505577 a82.13897633669477,82.13897633669477 0 0,0 1.3572870616674773,0.39622931256258337 l -17.63752063743969 58.53966427357448" fill="#47fdff" stroke="none" /><path d="M 106.0581310904928 79.89281104454417 l 17.682709860512844 -58.68964918369108 a82.29562096362031,82.29562096362031 0 0,0 1.352840577071247,0.42033415258652984 l -18.69033581029481 58.37657489622203" fill="#48f9ff" stroke="none" /><path d="M 106.74666289553966 80.11325718540242 l 19.930305417009844 -58.74739321961521 a83.03606438286832,83.03606438286832 0 0,0 1.349604908839695,0.47085065250712427 l -20.93859232991281 58.39562171393588" fill="#4ae8ff" stroke="none" /><path d="M 107.08798089147638 80.2323363322302 l 13.21006736584051 -36.84154524605733 a60.13828478519893,60.13828478519893 0 0,0 0.9714270998505539,0.3577847990854941 l -13.84227679146364 36.60869717916551" fill="#ff2f04" stroke="none" /><path d="M 107.76421540070413 80.48803036053334 l 22.8292155108377 -57.371277965821164 a82.74655145246405,82.74655145246405 0 0,0 1.318885976527341,0.5380067050802048 l -23.81338535695343 56.96981037455738" fill="#49eeff" stroke="none" /><path d="M 109.41281617654863 81.2277094730956 l 27.944140954395213 -55.72992425238452 a83.34339957730589,83.34339957730589 0 0,0 1.2768983210808529,0.6540769150574759 l -28.89929976306482 55.24065481201454" fill="#4be1ff" stroke="none" /><path d="M 109.73455568895987 81.39251694778311 l 28.573546819930048 -54.61798208176713 a82.64066469916568,82.64066469916568 0 0,0 1.2547802522629483,0.6702601549668301 l -29.509472118721305 54.11804320029855" fill="#49f1ff" stroke="none" /><line stroke="#e1ed5e" stroke-width="0.3" x1="143.23703022742887" x2="145.7803849466894" y1="26.81831364943548" y2="22.513508569990506" /><path d="M 143.74570117128098 25.957352633546492 a86.0,86.0 0 0,1 28.547481713284135,27.462654790039103" fill="none" id="id38" stroke="none" /><text fill="#e1ed5e" style="font-size:6.75px; font-family:Arial;" text-anchor="middle"><textPath startOffset="19.985693538727396" xlink:href="#id38">February</textPath></text><path d="M 111.60114157652 82.49532879139004 l 34.3143289587592 -51.77602929894968 a83.11465512949127,83.11465512949127 0 0,0 1.1857505001340392,0.8006240307666818 l -35.20048415329978 51.17769335588432" fill="#4ae6ff" stroke="none" /><path d="M 112.48926042617603 83.11751280151076 l 22.875471842393228 -30.922156105351572 a59.463839514742375,59.463839514742375 0 0,0 0.8176386843893386,0.6158285056544348 l -23.40435668054095 30.52381101019129" fill="#ff1702" stroke="none" /><path d="M 113.89432698308785 84.25364557470407 l 40.608810493824215 -46.021712574042596 a82.37648994501981,82.37648994501981 0 0,0 1.0551605083628446,0.9473335226584899 l -41.394981989783055 45.31588004261481" fill="#48f7ff" stroke="none" /><path d="M 114.42810811169701 84.74124197986012 l 42.17268920397164 -44.60064026691585 a82.38202364628933,82.38202364628933 0 0,0 1.0219951230941122,0.9831584986908611 l -42.93416757067818 43.86809868146269" fill="#48f7ff" stroke="none" /><path d="M 116.15771136456269 86.58626213691792 l 47.466536504367085 -39.4055608230769 a82.69173616864438,82.69173616864438 0 0,0 0.8997707813026191,1.1030125877822696 l -48.13780577774611 38.58266406568652" fill="#49f0ff" stroke="none" /><line stroke="#e1ed5e" stroke-width="0.3" x1="172.23445277983987" x2="176.4835382374775" y1="55.19839476539836" y2="52.563006222186495" /><path d="M 173.08426987136738 54.67131705675599 a86.0,86.0 0 0,1 12.851231095245387,41.99856678651699" fill="none" id="id39" stroke="none" /><text fill="#e1ed5e" style="font-size:6.75px; font-family:Arial;" text-anchor="middle"><textPath startOffset="22.20632615414155" xlink:href="#id39">March</textPath></text><path d="M 118.89224826269711 90.83032412892265 l 55.79867375022401 -27.08284081444208 a83.02396519785194,83.02396519785194 0 0,0 0.6129612151759114,1.291052643759732 l -56.25659315924168 26.118345755041805" fill="#4ae8ff" stroke="none" /><path d="M 119.7369772167798 92.82701384747503 l 58.090595934661756 -21.111796181078844 a82.8079709587328,82.8079709587328 0 0,0 0.4753450373079047,1.3438644311205765 l -58.44539405277948 20.10873412353165" fill="#49edff" stroke="none" /><path d="M 120.53481517161879 95.60439243477599 l 61.60444551485638 -13.186822695672053 a84.0,84.0 0 0,0 0.2904828163400124,1.4164973753463528 l -61.822307627111385 12.124449664162288" fill="#4dd2ff" stroke="none" /><line stroke="#e1ed5e" stroke-width="0.3" x1="184.98032266829074" x2="189.97916517819016" y1="98.17113171792111" y2="98.06355123074" /><path d="M 185.9800911702706 98.14961562048488 a86.0,86.0 0 0,1 -9.607161424134198,41.387399972396054" fill="none" id="id40" stroke="none" /><text fill="#e1ed5e" style="font-size:6.75px; font-family:Arial;" text-anchor="middle"><textPath startOffset="21.466115282336823" xlink:href="#id40">April</textPath></text><line stroke="#e1ed5e" stroke-width="0.3" x1="174.80103733775053" x2="179.2010983576182" y1="140.37084112569926" y2="142.7455964860345" /><path d="M 175.68104954172406 140.8457921977663 a86.0,86.0 0 0,1 -30.038265399797805,32.042727171017184" fill="none" id="id41" stroke="none" /><text fill="#e1ed5e" style="font-size:6.75px; font-family:Arial;" text-anchor="middle"><textPath startOffset="22.206326154141568" xlink:href="#id41">May</textPath></text><line stroke="#e1ed5e" stroke-width="0.3" x1="143.8653032363475" x2="146.44561519142675" y1="172.8068346515853" y2="177.08958963109032" /><path d="M 144.38136562736335 173.6633856474863 a86.0,86.0 0 0,1 -40.68145358897372,12.25698825130547" fill="none" id="id42" stroke="none" /><text fill="#e1ed5e" style="font-size:6.75px; font-family:Arial;" text-anchor="middle"><textPath startOffset="21.466115282336833" xlink:href="#id42">June</textPath></text><line stroke="#e1ed5e" stroke-width="0.3" x1="102.19456741930631" x2="102.32365962044197" y1="184.97166512339345" y2="189.96999836594603" /><path d="M 102.22038585953345 185.97133177190398 a86.0,86.0 0 0,1 -42.740103519485714,-10.115201625700543" fill="none" id="id43" stroke="none" /><text fill="#e1ed5e" style="font-size:6.75px; font-family:Arial;" text-anchor="middle"><textPath startOffset="22.20632615414155" xlink:href="#id43">July</textPath></text><line stroke="#e1ed5e" stroke-width="0.3" x1="58.666819895761336" x2="56.23545636021788" y1="174.27360380694188" y2="178.64263932499728" /><path d="M 58.180547188652646 175.14741091055294 a86.0,86.0 0 0,1 -31.652253787137756,-30.449443065178592" fill="none" id="id44" stroke="none" /><text fill="#e1ed5e" style="font-size:6.75px; font-family:Arial;" text-anchor="middle"><textPath startOffset="22.20632615414155" xlink:href="#id44">August</textPath></text><line stroke="#e1ed5e" stroke-width="0.3" x1="26.63291911575756" x2="22.317208475507996" y1="142.92168965132927" y2="145.44649492493687" /><path d="M 25.769776987707644 143.4266507060508 a86.0,86.0 0 0,1 -11.730757126820373,-40.83630448921669" fill="none" id="id45" stroke="none" /><text fill="#e1ed5e" style="font-size:6.75px; font-family:Arial;" text-anchor="middle"><textPath startOffset="21.46611528233685" xlink:href="#id45">September</textPath></text><line stroke="#e1ed5e" stroke-width="0.3" x1="15.007084014347285" x2="10.007500721073583" y1="101.09737516637583" y2="101.16192664675087" /><path d="M 14.007167355692545 101.11028546245083 a86.0,86.0 0 0,1 10.666146001902534,-42.60595125391555" fill="none" id="id46" stroke="none" /><text fill="#e1ed5e" style="font-size:6.75px; font-family:Arial;" text-anchor="middle"><textPath startOffset="22.20632615414155" xlink:href="#id46">October</textPath></text><line stroke="#e1ed5e" stroke-width="0.3" x1="26.266209847984243" x2="21.928928074336255" y1="57.711370442889674" y2="55.22380399835377" /><path d="M 25.398753493254645 57.213857153982495 a86.0,86.0 0 0,1 29.58750427330803,-30.492523968695096" fill="none" id="id47" stroke="none" /><text fill="#e1ed5e" style="font-size:6.75px; font-family:Arial;" text-anchor="middle"><textPath startOffset="21.46611528233685" xlink:href="#id47">November</textPath></text><line stroke="#e1ed5e" stroke-width="0.3" x1="56.762969772571076" x2="54.21961505331055" y1="26.818313649435495" y2="22.513508569990535" /><path d="M 56.25429882871897 25.957352633546506 a86.0,86.0 0 0,1 42.265352541879196,-11.944610805530505" fill="none" id="id48" stroke="none" /><text fill="#e1ed5e" style="font-size:6.75px; font-family:Arial;" text-anchor="middle"><textPath startOffset="22.20632615414155" xlink:href="#id48">December</textPath></text></svg>