<?xml version="1.0" encoding="utf-8" ?>
<svg baseProfile="full" height="200mm" version="1.1" viewBox="0,0,200,200" width="200mm" xmlns="http://www.w3.org/2000/svg" xmlns:ev="http://www.w3.org/2001/xml-events" xmlns:xlink="http://www.w3.org/1999/xlink"><defs /><rect fill="#1a1a1a" height="200" width="200" x="0" y="0" /><text alignment-baseline="middle" fill="#e1ed5e" style="dominant-baseline: central; font-size:9.0px; font-family:Arial;" text-anchor="middle" x="100.0" y="100.0">2021</text><line stroke="#e1ed5e" stroke-width="0.3" x1="100.0" x2="100.0" y1="15.0" y2="10.0" /><path d="M 100.0 14.0 a86.0,86.0 0 0,1 42.46469731375804,11.215312516191453" fill="none" id="id37" stroke="none" /><text fill="#e1ed5e" style="font-size:6.75px; font-family:Arial;" text-anchor="middle"><textPath startOffset="22.20632615414155" xlink:href="#id37">January</textPath></text><path d="M 101.08401301168833 79.027996857942 l 0.9141506372797586 -17.685737929922144 a38.709347743875995,38.709347743875995 0 0,0 0.6651334157454859,0.04012266403833727 l -1.2184461018648565 17.667381996503504" fill="#ff0000" stroke="none" /><path d="M 101.80526077348638 79.07773832637324 l 1.536692195153205 -17.809657580230983 a38.87583077867218,38.87583077867218 0 0,0 0.6662111743207535,0.06326477849434273 l -1.843028496564203 17.780567257221463" fill="#ff0400" stroke="none" /><path d="M 102.52436894288641 79.15227682838746 l 2.2400123361693183 -18.49933909900604 a39.63446276033211,39.63446276033211 0 0,0 0.6765891020515867,0.08784068368354456 l -2.5581161667287513 18.45804009215836" fill="#ff1302" stroke="none" /><path d="M 104.307194497241 79.44645832069477 l 3.62990375421746 -17.321571652258847 a38.69782601816447,38.69782601816447 0 0,0 0.6507818484645568,0.14223570579222486 l -3.9275283268355445 17.256522448370752" fill="#ff0000" stroke="none" /><path d="M 104.66035177308747 79.52364482259891 l 3.9852186531326486 -17.509998509637487 a38.95778425977947,38.95778425977947 0 0,0 0.6525917005245075,0.15444737112194118 l -4.28603404061968 17.438805226374676" fill="#ff0500" stroke="none" /><path d="M 105.36241919743992 79.69619591428918 l 4.577774129561365 -17.332891303914256 a38.92721776892856,38.92721776892856 0 0,0 0.6463810953654122,0.17668037055070235 l -4.875453114150488 17.25152439253726" fill="#ff0500" stroke="none" /><path d="M 105.71112130821622 79.79150937346287 l 7.7802633220961885 -27.53003656048746 a49.60831016300913,49.60831016300913 0 0,0 0.8197413766083093,0.2393049866205757 l -8.252994916427925 27.39203324494818" fill="#ffcc13" stroke="none" /><path d="M 106.0581310904928 79.89281104454417 l 8.274139976210785 -27.46221457747094 a49.68160772768826,49.68160772768826 0 0,0 0.8167056045164859,0.253754406842446 l -8.745630953437988 27.315720035745976" fill="#ffcd13" stroke="none" /><path d="M 106.74666289553966 80.11325718540242 l 9.325840784009152 -27.48923431821184 a50.02807795446064,50.02807795446064 0 0,0 0.813118252761087,0.2836809923929271 l -9.797641040833513 27.324632472646705" fill="#ffd313" stroke="none" /><path d="M 107.08798089147638 80.2323363322302 l 6.18128936923972 -17.23899247968209 a39.313688868734545,39.313688868734545 0 0,0 0.6350427668263182,0.23389161036850292 l -6.477114461838615 17.13003760150726" fill="#ff0c01" stroke="none" /><path d="M 107.76421540070413 80.48803036053334 l 10.682306398385656 -26.845318859376135 a49.892608304730246,49.892608304730246 0 0,0 0.795231466090552,0.3243948820913171 l -11.142821734064595 26.65746309110124" fill="#ffd113" stroke="none" /><path d="M 109.41281617654863 81.2277094730956 l 13.075695727381271 -26.07729232483602 a50.171887044721814,50.171887044721814 0 0,0 0.7686799273581346,0.3937477144831939 l -13.522636142328162 25.848352085040325" fill="#ffd614" stroke="none" /><path d="M 109.73455568895987 81.39251694778311 l 13.37020897079046 -25.556989427954512 a49.843061497406694,49.843061497406694 0 0,0 0.756795574030578,0.40425398615665215 l -13.808149591349348 25.323056715296108" fill="#ffd013" stroke="none" /><line stroke="#e1ed5e" stroke-width="0.3" x1="143.23703022742887" x2="145.7803849466894" y1="26.81831364943548" y2="22.513508569990506" /><path d="M 143.74570117128098 25.957352633546492 a86.0,86.0 0 0,1 28.547481713284135,27.462654790039103" fill="none" id="id38" stroke="none" /><text fill="#e1ed5e" style="font-size:6.75px; font-family:Arial;" text-anchor="middle"><textPath startOffset="19.985693538727396" xlink:href="#id38">February</textPath></text><path d="M 111.60114157652 82.49532879139004 l 16.056450806136926 -24.227175427933847 a50.064852342748566,50.064852342748566 0 0,0 0.7142473684341484,0.48226301149828826 l -16.471102868977617 23.947200504136887" fill="#ffd413" stroke="none" /><path d="M 112.48926042617603 83.11751280151076 l 10.703950782368404 -14.469176387566389 a38.99810066884486,38.99810066884486 0 0,0 0.536231026868892,0.4038780922026036 l -10.95142796299568 14.282781705857937" fill="#ff0601" stroke="none" /><path d="M 113.89432698308785 84.25364557470407 l 19.001781115214992 -21.534600453571226 a49.71944815356819,49.71944815356819 0 0,0 0.6368564407666992,0.5717760005966782 l -19.369648543577682 21.20432544420525" fill="#ffce13" stroke="none" /><path d="M 114.42810811169701 84.74124197986012 l 19.733555343014295 -20.86964857242656 a49.72203749758004,49.72203749758004 0 0,0 0.6168297109452983,0.5933896932158375 l -20.08986829757201 20.52687579244842" fill="#ffce13" stroke="none" /><path d="M 116.15771136456269 86.58626213691792 l 22.210666256538442 -18.438753373391034 a49.86695899335562,49.86695899335562 0 0,0 0.542603586930745,0.66516783940679 l -22.5247683355456 18.053701364376145" fill="#ffd013" stroke="none" /><line stroke="#e1ed5e" stroke-width="0.3" x1="172.23445277983987" x2="176.4835382374775" y1="55.19839476539836" y2="52.563006222186495" /><path d="M 173.08426987136738 54.67131705675599 a86.0,86.0 0 0,1 12.851231095245387,41.99856678651699" fill="none" id="id39" stroke="none" /><text fill="#e1ed5e" style="font-size:6.75px; font-family:Arial;" text-anchor="middle"><textPath startOffset="22.20632615414155" xlink:href="#id39">March</textPath></text><path d="M 118.89224826269711 90.83032412892265 l 26.109461770181518 -12.672673906873069 a50.02241647207399,50.02241647207399 0 0,0 0.3693126570585828,0.7778666422353965 l -26.323732621081856 12.221364848997133" fill="#ffd313" stroke="none" /><path d="M 119.7369772167798 92.82701384747503 l 27.181904009985974 -9.878687041150853 a49.92134788119484,49.92134788119484 0 0,0 0.2865649851857038,0.8101578023758998 l -27.347922075981487 9.409331612348339" fill="#ffd113" stroke="none" /><path d="M 120.53481517161879 95.60439243477599 l 28.82611372168887 -6.170412662208288 a50.47912523664296,50.47912523664296 0 0,0 0.17456331506095524,0.8512327191367213 l -28.92805633266482 5.673304286908155" fill="#ffdb14" stroke="none" /><path d="M 120.78858239683441 97.02765380044208 l 17.65915634846575 -2.524901662739348 a38.8387480319125,38.8387480319125 0 0,0 0.08892963795042588,0.6626290970003031 l -17.700001985474014 2.2205542236743807" fill="#ff0300" stroke="none" /><line stroke="#e1ed5e" stroke-width="0.3" x1="184.98032266829074" x2="189.97916517819016" y1="98.17113171792111" y2="98.06355123074" /><path d="M 185.9800911702706 98.14961562048488 a86.0,86.0 0 0,1 -9.607161424134198,41.387399972396054" fill="none" id="id40" stroke="none" /><text fill="#e1ed5e" style="font-size:6.75px; font-family:Arial;" text-anchor="middle"><textPath startOffset="21.466115282336823" xlink:href="#id40">April</textPath></text><path d="M 120.49622156327973 104.57218783832717 l 29.091991696440896 6.489686414469924 a50.80704632505444,50.80704632505444 0 0,0 -0.19775901015953026,0.8519406399330991 l -28.975972120350814 -6.989495711751588" fill="#ffe015" stroke="none" /><path d="M 120.41448212921028 104.9243191809786 l 28.594541998018087 6.8974882997723 a50.41467621650655,50.41467621650655 0 0,0 -0.2107541983470078,0.8418582588058604 l -28.47157648537602 -7.3886743979755565" fill="#ffda14" stroke="none" /><path d="M 120.02730092923936 106.31721596034902 l 51.28416797545548 16.176576443946807 a74.77497104026732,74.77497104026732 0 0,0 -0.39775922358255156,1.2241770141796384 l -50.99811650085669 -17.056952358104244" fill="#3dffb0" stroke="none" /><path d="M 119.9155931802556 106.66101706037122 l 59.746779540766816 19.98305118111367 a84.0,84.0 0 0,0 -0.47043667622707686,1.3673091876427985 l -59.393952033596506 -21.00853307184577" fill="#4dd2ff" stroke="none" /><line stroke="#e1ed5e" stroke-width="0.3" x1="174.80103733775053" x2="179.2010983576182" y1="140.37084112569926" y2="142.7455964860345" /><path d="M 175.68104954172406 140.8457921977663 a86.0,86.0 0 0,1 -30.038265399797805,32.042727171017184" fill="none" id="id41" stroke="none" /><text fill="#e1ed5e" style="font-size:6.75px; font-family:Arial;" text-anchor="middle"><textPath startOffset="22.206326154141568" xlink:href="#id41">May</textPath></text><line stroke="#e1ed5e" stroke-width="0.3" x1="143.8653032363475" x2="146.44561519142675" y1="172.8068346515853" y2="177.08958963109032" /><path d="M 144.38136562736335 173.6633856474863 a86.0,86.0 0 0,1 -40.68145358897372,12.25698825130547" fill="none" id="id42" stroke="none" /><text fill="#e1ed5e" style="font-size:6.75px; font-family:Arial;" text-anchor="middle"><textPath startOffset="21.466115282336833" xlink:href="#id42">June</textPath></text><line stroke="#e1ed5e" stroke-width="0.3" x1="102.19456741930631" x2="102.32365962044197" y1="184.97166512339345" y2="189.96999836594603" /><path d="M 102.22038585953345 185.97133177190398 a86.0,86.0 0 0,1 -42.740103519485714,-10.115201625700543" fill="none" id="id43" stroke="none" /><text fill="#e1ed5e" style="font-size:6.75px; font-family:Arial;" text-anchor="middle"><textPath startOffset="22.20632615414155" xlink:href="#id43">July</textPath></text><line stroke="#e1ed5e" stroke-width="0.3" x1="58.666819895761336" x2="56.23545636021788" y1="174.27360380694188" y2="178.64263932499728" /><path d="M 58.180547188652646 175.14741091055294 a86.0,86.0 0 0,1 -31.652253787137756,-30.449443065178592" fill="none" id="id44" stroke="none" /><text fill="#e1ed5e" style="font-size:6.75px; font-family:Arial;" text-anchor="middle"><textPath startOffset="22.20632615414155" xlink:href="#id44">August</textPath></text><line stroke="#e1ed5e" stroke-width="0.3" x1="26.63291911575756" x2="22.317208475507996" y1="142.92168965132927" y2="145.44649492493687" /><path d="M 25.769776987707644 143.4266507060508 a86.0,86.0 0 0,1 -11.730757126820373,-40.83630448921669" fill="none" id="id45" stroke="none" /><text fill="#e1ed5e" style="font-size:6.75px; font-family:Arial;" text-anchor="middle"><textPath startOffset="21.46611528233685" xlink:href="#id45">September</textPath></text><line stroke="#e1ed5e" stroke-width="0.3" x1="15.007084014347285" x2="10.007500721073583" y1="101.09737516637583" y2="101.16192664675087" /><path d="M 14.007167355692545 101.11028546245083 a86.0,86.0 0 0,1 10.666146001902534,-42.60595125391555" fill="none" id="id46" stroke="none" /><text fill="#e1ed5e" style="font-size:6.75px; font-family:Arial;" text-anchor="middle"><textPath startOffset="22.20632615414155" xlink:href="#id46">October</textPath></text><line stroke="#e1ed5e" stroke-width="0.3" x1="26.266209847984243" x2="21.928928074336255" y1="57.711370442889674" y2="55.22380399835377" /><path d="M 25.398753493254645 57.213857153982495 a86.0,86.0 0 0,1 29.58750427330803,-30.492523968695096" fill="none" id="id47" stroke="none" /><text fill="#e1ed5e" style="font-size:6.75px; font-family:Arial;" text-anchor="middle"><textPath startOffset="21.46611528233685" xlink:href="#id47">November</textPath></text><line stroke="#e1ed5e" stroke-width="0.3" x1="56.762969772571076" x2="54.21961505331055" y1="26.818313649435495" y2="22.513508569990535" /><path d="M 56.25429882871897 25.957352633546506 a86.0,86.0 0 0,1 42.265352541879196,-11.944610805530505" fill="none" id="id48" stroke="none" /><text fill="#e1ed5e" style="font-size:6.75px; font-family:Arial;" text-anchor="middle"><textPath startOffset="22.20632615414155" xlink:href="#id48">December</textPath></text></svg>