<?xml version="1.0" encoding="utf-8" ?>
<svg baseProfile="full" height="200mm" version="1.1" viewBox="0,0,200,200" width="200mm" xmlns="http://www.w3.org/2000/svg" xmlns:ev="http://www.w3.org/2001/xml-events" xmlns:xlink="http://www.w3.org/1999/xlink"><defs /><rect fill="#1a1a1a" height="200" width="200" x="0" y="0" /><text alignment-baseline="middle" fill="#e1ed5e" style="dominant-baseline: central; font-size:9.0px; font-family:Arial;" text-anchor="middle" x="100.0" y="100.0">2021</text><line stroke="#e1ed5e" stroke-width="0.3" x1="100.0" x2="100.0" y1="15.0" y2="10.0" /><path d="M 100.0 14.0 a86.0,86.0 0 0,1 42.46469731375804,11.215312516191453" fill="none" id="id37" stroke="none" /><text fill="#e1ed5e" style="font-size:6.75px; font-family:Arial;" text-anchor="middle"><textPath startOffset="22.20632615414155" xlink:href="#id37">January</textPath></text><path d="M 101.08401301168833 79.027996857942 l 1.932143477772772 -37.380472973887 a58.43037453953936,58.43037453953936 0 0,0 1.0039950778276898,0.06056372488619486 l -2.575300604440074 37.341675979620504" fill="#ff0100" stroke="none" /><path d="M 101.80526077348638 79.07773832637324 l 3.247943698912445 -37.642388827082236 a58.78225211498847,58.78225211498847 0 0,0 1.007345500439557,0.09565959324767832 l -3.8954143264422463 37.58090368931938" fill="#ff0d01" stroke="none" /><path d="M 102.52436894288641 79.15227682838746 l 4.734477064238577 -39.10009567964972 a60.38569226546061,60.38569226546061 0 0,0 1.0308276802869194,0.1338310178537599 l -5.406819473033343 39.012806338631826" fill="#ff4506" stroke="none" /><path d="M 104.307194497241 79.44645832069477 l 7.672143493247726 -36.61077324441385 a58.40602228699107,58.40602228699107 0 0,0 0.9822148439953381,0.2146741214508316 l -8.301201061396592 36.47328562486715" fill="#ff0000" stroke="none" /><path d="M 104.66035177308747 79.52364482259891 l 8.423135000005683 -37.009031155828445 a58.955468516689415,58.955468516689415 0 0,0 0.9875779689618107,0.23372779788879586 l -9.058936655930017 36.85855744579878" fill="#ff1302" stroke="none" /><path d="M 105.36241919743992 79.69619591428918 l 9.675556813556206 -36.63469839441072 a58.89086335915023,58.89086335915023 0 0,0 0.9778746837511292,0.267290090499366 l -10.304729386531045 36.462721763085064" fill="#ff1101" stroke="none" /><path d="M 105.71112130821622 79.79150937346287 l 16.444319371559356 -58.18732538597288 a81.46635820989161,81.46635820989161 0 0,0 1.3461725345371325,0.39298467731283426 l -17.443482123819916 57.89564237974134" fill="#45fff2" stroke="none" /><path d="M 106.0581310904928 79.89281104454417 l 17.488174199371205 -58.04397723656402 a81.62127951690161,81.62127951690161 0 0,0 1.3417552184429276,0.4168898776999501 l -18.48471479052485 57.73434722398155" fill="#46fff6" stroke="none" /><path d="M 106.74666289553966 80.11325718540242 l 19.711042918691593 -58.1010860036694 a82.35357697598641,82.35357697598641 0 0,0 1.3385122786506958,0.46698065164368574 l -20.708237201405563 57.75318449885351" fill="#48f7ff" stroke="none" /><path d="M 107.08798089147638 80.2323363322302 l 13.064737311283768 -36.436234384856924 a59.70770643116278,59.70770643116278 0 0,0 0.9644718718587055,0.35522312991851274 l -13.68999150891505 36.205947987132085" fill="#ff2d04" stroke="none" /><path d="M 107.76421540070413 80.48803036053334 l 22.57806076318993 -56.74011002959071 a82.06724911109356,82.06724911109356 0 0,0 1.3080586693329088,0.5335899746181025 l -23.55140330211123 56.34305916878903" fill="#47feff" stroke="none" /><path d="M 109.41281617654863 81.2277094730956 l 27.63671454868702 -55.116813606712455 a82.6575310339515,82.6575310339515 0 0,0 1.2663901777133744,0.6486942358861506 l -28.58136521398915 54.63292684551381" fill="#49f0ff" stroke="none" /><path d="M 109.73455568895987 81.39251694778311 l 28.259196029489868 -54.017104425666155 a81.96252726689124,81.96252726689124 0 0,0 1.2444837056241256,0.6647600963443628 l -29.184824781642302 53.52266560282004" fill="#47fffe" stroke="none" /><line stroke="#e1ed5e" stroke-width="0.3" x1="143.23703022742887" x2="145.7803849466894" y1="26.81831364943548" y2="22.513508569990506" /><path d="M 143.74570117128098 25.957352633546492 a86.0,86.0 0 0,1 28.547481713284135,27.462654790039103" fill="none" id="id38" stroke="none" /><text fill="#e1ed5e" style="font-size:6.75px; font-family:Arial;" text-anchor="middle"><textPath startOffset="19.985693538727396" xlink:href="#id38">February</textPath></text><path d="M 111.60114157652 82.49532879139004 l 33.93682117158849 -51.20641727848373 a82.43130310949438,82.43130310949438 0 0,0 1.176001497407426,0.7940414606070622 l -34.81322736340246 50.61466390557799" fill="#48f5ff" stroke="none" /><path d="M 112.48926042617603 83.11751280151076 l 22.623808207470145 -30.58196717903137 a59.04068104474137,59.04068104474137 0 0,0 0.8118201779235049,0.6114461272146583 l -23.146874539152034 30.188004462310865" fill="#ff1602" stroke="none" /><path d="M 113.89432698308785 84.25364557470407 l 40.162054207038516 -45.515406450542 a81.70125882127273,81.70125882127273 0 0,0 1.0465114724999314,0.9395683328635022 l -40.93957666713443 44.8173391089092" fill="#46fff8" stroke="none" /><path d="M 114.42810811169701 84.74124197986012 l 41.708727964934646 -44.10996801644592 a81.70673164373785,81.70673164373785 0 0,0 1.0136177477551034,0.9750994702521205 l -42.46182895630217 43.38548545943149" fill="#46fff8" stroke="none" /><path d="M 116.15771136456269 86.58626213691792 l 46.94433520525506 -38.972042041858145 a82.01303687553758,82.01303687553758 0 0,0 0.8923858378787344,1.0939595203501264 l -47.6082195352102 38.15819835189992" fill="#47ffff" stroke="none" /><line stroke="#e1ed5e" stroke-width="0.3" x1="172.23445277983987" x2="176.4835382374775" y1="55.19839476539836" y2="52.563006222186495" /><path d="M 173.08426987136738 54.67131705675599 a86.0,86.0 0 0,1 12.851231095245387,41.99856678651699" fill="none" id="id39" stroke="none" /><text fill="#e1ed5e" style="font-size:6.75px; font-family:Arial;" text-anchor="middle"><textPath startOffset="22.20632615414155" xlink:href="#id39">March</textPath></text><path d="M 118.89224826269711 90.83032412892265 l 55.184806759561795 -26.78488996952117 a82.34161089969462,82.34161089969462 0 0,0 0.6079234321841899,1.280441787984325 l -55.637688385587744 25.831005765896304" fill="#48f7ff" stroke="none" /><path d="M 119.7369772167798 92.82701384747503 l 57.45151444910866 -20.879535556979313 a82.12799291299612,82.12799291299612 0 0,0 0.47144173928264177,1.3328292819793932 l -57.80240926920111 19.887508648573306" fill="#47fcff" stroke="none" /><path d="M 120.53481517161879 95.60439243477599 l 60.92670654656292 -13.041748366471602 a83.30690789202556,83.30690789202556 0 0,0 0.2880860145839713,1.4048097187770783 l -61.14217185706188 11.99106299153111" fill="#4be1ff" stroke="none" /><path d="M 120.78858239683441 97.02765380044208 l 37.32429029770063 -5.336617490303728 a58.70387423680549,58.70387423680549 0 0,0 0.1344151021005343,1.0015486375614338 l -37.410621398859 4.69335051067763" fill="#ff0b01" stroke="none" /><line stroke="#e1ed5e" stroke-width="0.3" x1="184.98032266829074" x2="189.97916517819016" y1="98.17113171792111" y2="98.06355123074" /><path d="M 185.9800911702706 98.14961562048488 a86.0,86.0 0 0,1 -9.607161424134198,41.387399972396054" fill="none" id="id40" stroke="none" /><text fill="#e1ed5e" style="font-size:6.75px; font-family:Arial;" text-anchor="middle"><textPath startOffset="21.466115282336823" xlink:href="#id40">April</textPath></text><path d="M 120.49622156327973 104.57218783832717 l 61.488664689839204 13.716563514981502 a84.0,84.0 0 0,0 -0.3269577362777887,1.4085253706057403 l -61.24344638763086 -14.772957542935806" fill="#4dd2ff" stroke="none" /><path d="M 120.41448212921028 104.9243191809786 l 60.437257896328966 14.578491211334786 a83.17068881737072,83.17068881737072 0 0,0 -0.34768787906911686,1.388840245066392 l -60.17735870296479 -15.616659295798573" fill="#4be4ff" stroke="none" /><line stroke="#e1ed5e" stroke-width="0.3" x1="174.80103733775053" x2="179.2010983576182" y1="140.37084112569926" y2="142.7455964860345" /><path d="M 175.68104954172406 140.8457921977663 a86.0,86.0 0 0,1 -30.038265399797805,32.042727171017184" fill="none" id="id41" stroke="none" /><text fill="#e1ed5e" style="font-size:6.75px; font-family:Arial;" text-anchor="middle"><textPath startOffset="22.206326154141568" xlink:href="#id41">May</textPath></text><line stroke="#e1ed5e" stroke-width="0.3" x1="143.8653032363475" x2="146.44561519142675" y1="172.8068346515853" y2="177.08958963109032" /><path d="M 144.38136562736335 173.6633856474863 a86.0,86.0 0 0,1 -40.68145358897372,12.25698825130547" fill="none" id="id42" stroke="none" /><text fill="#e1ed5e" style="font-size:6.75px; font-family:Arial;" text-anchor="middle"><textPath startOffset="21.466115282336833" xlink:href="#id42">June</textPath></text><line stroke="#e1ed5e" stroke-width="0.3" x1="102.19456741930631" x2="102.32365962044197" y1="184.97166512339345" y2="189.96999836594603" /><path d="M 102.22038585953345 185.97133177190398 a86.0,86.0 0 0,1 -42.740103519485714,-10.115201625700543" fill="none" id="id43" stroke="none" /><text fill="#e1ed5e" style="font-size:6.75px; font-family:Arial;" text-anchor="middle"><textPath startOffset="22.20632615414155" xlink:href="#id43">July</textPath></text><line stroke="#e1ed5e" stroke-width="0.3" x1="58.666819895761336" x2="56.23545636021788" y1="174.27360380694188" y2="178.64263932499728" /><path d="M 58.180547188652646 175.14741091055294 a86.0,86.0 0 0,1 -31.652253787137756,-30.449443065178592" fill="none" id="id44" stroke="none" /><text fill="#e1ed5e" style="font-size:6.75px; font-family:Arial;" text-anchor="middle"><textPath startOffset="22.20632615414155" xlink:href="#id44">August</textPath></text><line stroke="#e1ed5e" stroke-width="0.3" x1="26.63291911575756" x2="22.317208475507996" y1="142.92168965132927" y2="145.44649492493687" /><path d="M 25.769776987707644 143.4266507060508 a86.0,86.0 0 0,1 -11.730757126820373,-40.83630448921669" fill="none" id="id45" stroke="none" /><text fill="#e1ed5e" style="font-size:6.75px; font-family:Arial;" text-anchor="middle"><textPath startOffset="21.46611528233685" xlink:href="#id45">September</textPath></text><line stroke="#e1ed5e" stroke-width="0.3" x1="15.007084014347285" x2="10.007500721073583" y1="101.09737516637583" y2="101.16192664675087" /><path d="M 14.007167355692545 101.11028546245083 a86.0,86.0 0 0,1 10.666146001902534,-42.60595125391555" fill="none" id="id46" stroke="none" /><text fill="#e1ed5e" style="font-size:6.75px; font-family:Arial;" text-anchor="middle"><textPath startOffset="22.20632615414155" xlink:href="#id46">October</textPath></text><line stroke="#e1ed5e" stroke-width="0.3" x1="26.266209847984243" x2="21.928928074336255" y1="57.711370442889674" y2="55.22380399835377" /><path d="M 25.398753493254645 57.213857153982495 a86.0,86.0 0 0,1 29.58750427330803,-30.492523968695096" fill="none" id="id47" stroke="none" /><text fill="#e1ed5e" style="font-size:6.75px; font-family:Arial;" text-anchor="middle"><textPath startOffset="21.46611528233685" xlink:href="#id47">November</textPath></text><line stroke="#e1ed5e" stroke-width="0.3" x1="56.762969772571076" x2="54.21961505331055" y1="26.818313649435495" y2="22.513508569990535" /><path d="M 56.25429882871897 25.957352633546506 a86.0,86.0 0 0,1 42.265352541879196,-11.944610805530505" fill="none" id="id48" stroke="none" /><text fill="#e1ed5e" style="font-size:6.75px; font-family:Arial;" text-anchor="middle"><textPath startOffset="22.20632615414155" xlink:href="#id48">December</textPath></text></svg>