<?xml version="1.0" encoding="utf-8" ?>
<svg baseProfile="full" height="200mm" version="1.1" viewBox="0,0,200,200" width="200mm" xmlns="http://www.w3.org/2000/svg" xmlns:ev="http://www.w3.org/2001/xml-events" xmlns:xlink="http://www.w3.org/1999/xlink"><defs /><rect fill="#1a1a1a" height="200" width="200" x="0" y="0" /><text alignment-baseline="middle" fill="#e1ed5e" style="dominant-baseline: central; font-size:9.0px; font-family:Arial;" text-anchor="middle" x="100.0" y="100.0">2019</text><line stroke="#e1ed5e" stroke-width="0.3" x1="100.0" x2="100.0" y1="15.0" y2="10.0" /><path d="M 100.0 14.0 a86.0,86.0 0 0,1 42.46469731375804,11.215312516191453" fill="none" id="id13" stroke="none" /><text fill="#e1ed5e" style="font-size:6.75px; font-family:Arial;" text-anchor="middle"><textPath startOffset="22.20632615414155" xlink:href="#id13">January</textPath></text><path d="M 100.36148047927253 79.00311137660856 l 0.6738172224540729 -39.139223232368785 a60.145022989934134,60.145022989934134 0 0,0 1.0349909206740253,0.026730761960362535 l -1.347434778322966 39.12182567826606" fill="#4cff2c" stroke="none" /><path d="M 102.16513564639614 79.11191278185805 l 0.9791137836753475 -9.445973578578167 a30.49658257735802,30.49658257735802 0 0,0 0.5216851376643905,0.05861740372095921 l -1.1415656248494632 9.427720221386608" fill="#ff1b02" stroke="none" /><path d="M 105.71112130821622 79.79150937346287 l 11.299460960371613 -39.98252507333136 a62.54852740151609,62.54852740151609 0 0,0 1.033569089300969,0.3017271594975164 l -11.98602026739601 39.782099584915144" fill="#32ff2f" stroke="none" /><path d="M 106.74666289553966 80.11325718540242 l 12.576108292915967 -37.06985736534904 a60.145022989934134,60.145022989934134 0 0,0 0.9775513672615548,0.3410484773133011 l -13.212341664240796 36.84788803486353" fill="#4cff2c" stroke="none" /><path d="M 107.4271985657038 80.35727306442388 l 13.869580321465271 -36.680906879694575 a60.21548403131602,60.21548403131602 0 0,0 0.9663634212498674,0.3749339940884209 l -14.498926907714806 36.43673018171561" fill="#4bff2c" stroke="none" /><path d="M 109.08828744355905 81.06846463323043 l 14.22367243248201 -29.628899765017508 a53.8661613023487,53.8661613023487 0 0,0 0.8324341465934729,0.4084718205116109 l -14.731577846085916 29.379672784371067" fill="#96ff23" stroke="none" /><line stroke="#e1ed5e" stroke-width="0.3" x1="143.23703022742887" x2="145.7803849466894" y1="26.81831364943548" y2="22.513508569990506" /><path d="M 143.74570117128098 25.957352633546492 a86.0,86.0 0 0,1 28.547481713284135,27.462654790039103" fill="none" id="id14" stroke="none" /><text fill="#e1ed5e" style="font-size:6.75px; font-family:Arial;" text-anchor="middle"><textPath startOffset="19.985693538727396" xlink:href="#id14">February</textPath></text><path d="M 110.68208982089419 81.91981866633111 l 19.911935791402122 -33.70233876041173 a60.145022989934134,60.145022989934134 0 0,0 0.8868181259950426,0.5342979982362756 l -20.489115983614802 33.35459415271684" fill="#4cff2c" stroke="none" /><path d="M 112.19680574252982 82.90503203632743 l 21.72598651838231 -30.45100917003637 a58.40698396918106,58.40698396918106 0 0,0 0.8133998104493421,0.5909695545629428 l -22.24693164518544 30.07252038065675" fill="#60ff29" stroke="none" /><path d="M 113.89432698308785 84.25364557470405 l 41.68298094926353 -47.23906327588783 a84.0,84.0 0 0,0 1.0759560496160399,0.9660039649228196 l -42.48994798647556 46.51456030219571" fill="#4dd2ff" stroke="none" /><path d="M 116.60985879189232 87.15038557335679 l 7.232626470335614 -5.595258972406835 a30.144277370448613,30.144277370448613 0 0,0 0.3139656535940431,0.4131419974895217 l -7.32786806415377 5.46993219903628" fill="#ff1502" stroke="none" /><line stroke="#e1ed5e" stroke-width="0.3" x1="172.23445277983987" x2="176.4835382374775" y1="55.19839476539836" y2="52.563006222186495" /><path d="M 173.08426987136738 54.67131705675599 a86.0,86.0 0 0,1 12.851231095245387,41.99856678651699" fill="none" id="id15" stroke="none" /><text fill="#e1ed5e" style="font-size:6.75px; font-family:Arial;" text-anchor="middle"><textPath startOffset="22.20632615414155" xlink:href="#id15">March</textPath></text><path d="M 118.03404312379186 89.2402003453031 l 8.330127785651094 -4.970072737232307 a30.70013669690568,30.70013669690568 0 0,0 0.2668577593551755,0.45614641395163114 l -8.414445219476594 4.825946910926781" fill="#ff1e03" stroke="none" /><path d="M 119.196687751892 91.48605970444005 l 9.267942328333598 -4.110433459456989 a31.138560954392943,31.138560954392943 0 0,0 0.21309049958458226,0.49184225261496906 l -9.337323537760861 3.950292062255417" fill="#ff2503" stroke="none" /><path d="M 120.08093135843002 93.85539295169968 l 24.57025601529787 -7.518305082336885 a46.69479309059277,46.69479309059277 0 0,0 0.22856901739534125,0.770621098911935 l -24.696030929804913 7.09425459667842" fill="#f3ff19" stroke="none" /><path d="M 120.67395015179393 96.31383870115 l 17.78108723755012 -3.170364402801143 a39.06151360755561,39.06151360755561 0 0,0 0.11232629014108385,0.662956122839387 l -17.83302538921143 2.8638224916459185" fill="#ff9f0e" stroke="none" /><path d="M 120.96714384426684 98.82574320788733 l 14.328112837035341 -0.802440424981678 a35.35056542810985,35.35056542810985 0 0,0 0.028796220065745837,0.6078426928898776 l -14.339802665334584 0.5556866254688007" fill="#ff6809" stroke="none" /><line stroke="#e1ed5e" stroke-width="0.3" x1="184.98032266829074" x2="189.97916517819016" y1="98.17113171792111" y2="98.06355123074" /><path d="M 185.9800911702706 98.14961562048488 a86.0,86.0 0 0,1 -9.607161424134198,41.387399972396054" fill="none" id="id16" stroke="none" /><text fill="#e1ed5e" style="font-size:6.75px; font-family:Arial;" text-anchor="middle"><textPath startOffset="21.466115282336823" xlink:href="#id16">April</textPath></text><path d="M 120.95626037817324 101.35467743843564 l 24.000608381414754 1.551473502252127 a45.05070212501553,45.05070212501553 0 0,0 -0.056685456415749805,0.7734280159881017 l -23.970346366334667 -1.9643746547369991" fill="#fff517" stroke="none" /><path d="M 120.64145759157962 103.86396538481128 l 27.187623836604008 5.089371084082859 a48.65987324468746,48.65987324468746 0 0,0 -0.1612033639537426,0.8219724798174598 l -27.095990539674602 -5.556607290968264" fill="#d9ff1c" stroke="none" /><path d="M 120.13307415673323 105.97154293290107 l 22.75009858421464 6.747761885034111 a44.729712936498075,44.729712936498075 0 0,0 -0.22529552867464717,0.7362788232207954 l -22.63057628303386 -7.138367680806963" fill="#fff016" stroke="none" /><path d="M 119.9155931802556 106.66101706037122 l 12.518090009411313 4.186830407774034 a34.19970175220579,34.19970175220579 0 0,0 -0.19153326214601224,0.5566853145289821 l -12.44416591632207 -4.401688425392316" fill="#ff5607" stroke="none" /><path d="M 118.97047184881838 109.00673069616215 l 11.648204474339703 5.53029158316605 a33.894370572884306,33.894370572884306 0 0,0 -0.25476742923923085,0.5248963638527386 l -11.551283788485758 -5.729976902984065" fill="#ff5107" stroke="none" /><line stroke="#e1ed5e" stroke-width="0.3" x1="174.80103733775053" x2="179.2010983576182" y1="140.37084112569926" y2="142.7455964860345" /><path d="M 175.68104954172406 140.8457921977663 a86.0,86.0 0 0,1 -30.038265399797805,32.042727171017184" fill="none" id="id17" stroke="none" /><text fill="#e1ed5e" style="font-size:6.75px; font-family:Arial;" text-anchor="middle"><textPath startOffset="22.206326154141568" xlink:href="#id17">May</textPath></text><path d="M 117.94076556474637 110.91462005526583 l 13.082690733681085 7.959114015695273 a36.313532993662236,36.313532993662236 0 0,0 -0.32947676637508344,0.5312214550829153 l -12.943749327638038 -8.183131802143462" fill="#ff760a" stroke="none" /><path d="M 116.71984013943494 112.70617746262583 l 14.511167333641549 11.02770515707453 a39.22592270411333,39.22592270411333 0 0,0 -0.41316698526099327,0.5340740239199327 l -14.319193531162487 -11.275857175107715" fill="#ffa20f" stroke="none" /><path d="M 114.81725581225074 114.88116024355365 l 11.081178759553243 11.128970093911505 a36.70498322356158,36.70498322356158 0 0,0 -0.45155876970727654,0.44194529668125077 l -10.887970037470172 -11.318065493515327" fill="#ff7c0b" stroke="none" /><path d="M 112.63410532772338 116.77436683061366 l 8.082561728236598 10.731258909407122 a34.43457189014539,34.43457189014539 0 0,0 -0.47653352992755604,0.35252811313268884 l -7.896643227890478 -10.86879697127958" fill="#ff5908" stroke="none" /><path d="M 111.1453310114006 117.79835938074945 l 20.954108720203767 33.462331188189204 a60.48167018764757,60.48167018764757 0 0,0 -0.8871244019347351,0.544944264046913 l -20.37500511833672 -33.81806391906449" fill="#48ff2c" stroke="none" /><line stroke="#e1ed5e" stroke-width="0.3" x1="143.8653032363475" x2="146.44561519142675" y1="172.8068346515853" y2="177.08958963109032" /><path d="M 144.38136562736335 173.6633856474863 a86.0,86.0 0 0,1 -40.68145358897372,12.25698825130547" fill="none" id="id18" stroke="none" /><text fill="#e1ed5e" style="font-size:6.75px; font-family:Arial;" text-anchor="middle"><textPath startOffset="21.466115282336833" xlink:href="#id18">June</textPath></text><path d="M 109.2508944713604 118.85261126421891 l 4.0144306566410455 8.18110084934167 a30.112961352056665,30.112961352056665 0 0,0 -0.46730631588732624,0.22433542978396626 l -3.8730116727534867 -8.248990555625195" fill="#ff1502" stroke="none" /><path d="M 106.2309692047433 120.05430185196036 l 5.066388903521243 16.30611370913093 a38.07505902820927,38.07505902820927 0 0,0 -0.6275586085394325,0.18907826081116735 l -4.784955320541565 -16.39090733904782" fill="#ff910d" stroke="none" /><path d="M 103.7750983002368 120.6578951692458 l 1.9379807478909237 10.604916732217523 a31.78053933142786,31.78053933142786 0 0,0 -0.5389843700029049,0.09370934146528977 l -1.7551474064159687 -10.63670465220382" fill="#ff3004" stroke="none" /><path d="M 101.62511606390274 120.93702456842531 l 1.112357310796104 14.330947101141623 a35.374052441903814,35.374052441903814 0 0,0 -0.6074857434623585,0.04189577359037587 l -0.8655088065548152 -14.347971219248283" fill="#ff6809" stroke="none" /><line stroke="#e1ed5e" stroke-width="0.3" x1="102.19456741930631" x2="102.32365962044197" y1="184.97166512339345" y2="189.96999836594603" /><path d="M 102.22038585953345 185.97133177190398 a86.0,86.0 0 0,1 -42.740103519485714,-10.115201625700543" fill="none" id="id19" stroke="none" /><text fill="#e1ed5e" style="font-size:6.75px; font-family:Arial;" text-anchor="middle"><textPath startOffset="22.20632615414155" xlink:href="#id19">July</textPath></text><path d="M 99.81925306533755 120.99922214144158 l -0.07055127647256738 8.196664191160432 a29.196967814092208,29.196967814092208 0 0,0 -0.5025219571866324,-0.008651371219182517 l 0.21163292355186772 -8.194235342662088" fill="#ff0601" stroke="none" /><path d="M 96.93821686468263 120.77559828337769 l -1.3868770384282074 9.410594723861275 a30.512240586553993,30.512240586553993 0 0,0 -0.5189465742126529,-0.08104878221668191 l 1.5486594762493773 -9.385327634297488" fill="#ff1b02" stroke="none" /><path d="M 94.81253420990036 120.34920634021253 l -4.028392409883516 15.802434499812115 a37.30781657760656,37.30781657760656 0 0,0 -0.6209256405575928,-0.16399210517658716 l 4.2998084932525975 -15.730751045331948" fill="#ff850c" stroke="none" /><path d="M 92.7421414339146 119.70592522655815 l -11.675528661361438 31.700410346439075 a54.78215484031316,54.78215484031316 0 0,0 -0.8820703772586231,-0.3335235409173053 l 12.219469259380345 -31.494738555415136" fill="#8bff24" stroke="none" /><path d="M 90.7491055286396 118.85261126421891 l -11.757039612104226 23.95994226409429 a47.68907667453709,47.68907667453709 0 0,0 -0.7338351796949465,-0.3679601932674802 l 12.167728699481932 -23.75401422991751" fill="#e5ff1a" stroke="none" /><line stroke="#e1ed5e" stroke-width="0.3" x1="58.666819895761336" x2="56.23545636021788" y1="174.27360380694188" y2="178.64263932499728" /><path d="M 58.180547188652646 175.14741091055294 a86.0,86.0 0 0,1 -31.652253787137756,-30.449443065178592" fill="none" id="id20" stroke="none" /><text fill="#e1ed5e" style="font-size:6.75px; font-family:Arial;" text-anchor="middle"><textPath startOffset="22.20632615414155" xlink:href="#id20">August</textPath></text><path d="M 88.24862548938628 117.40417183066458 l -14.255861559911896 21.113399454572832 a46.47558096184913,46.47558096184913 0 0,0 -0.6591634201256251,-0.45337861093537407 l 14.617181864660413 -20.864880054272362" fill="#f6ff19" stroke="none" /><path d="M 87.07902340077011 116.55440617244103 l -19.427227025485564 24.890239875775325 a52.57437554368087,52.57437554368087 0 0,0 -0.7086087177477449,-0.5629616215300904 l 19.852793235950667 -24.552144340240105" fill="#a6ff21" stroke="none" /><path d="M 85.97065885151581 115.62618273729859 l -18.154284749492472 20.220633881383147 a48.17447495961228,48.17447495961228 0 0,0 -0.6122756700437207,-0.5592993076689158 l 18.499659969003048 -19.905141807127652" fill="#dfff1b" stroke="none" /><path d="M 83.95833913139862 113.55231037782056 l -21.70916948664957 18.34033304516788 a49.41928669069218,49.41928669069218 0 0,0 -0.5433862371089974,-0.6545437273563695 l 22.021651723652106 -17.96392806069775" fill="#cfff1d" stroke="none" /><path d="M 82.85270091963577 112.12312394758628 l -18.864799149802977 13.337394843790404 a44.10339256865913,44.10339256865913 0 0,0 -0.43292539691312765,-0.623661323355229 l 19.09158545387824 -13.010692258248165" fill="#ffe815" stroke="none" /><line stroke="#e1ed5e" stroke-width="0.3" x1="26.63291911575756" x2="22.317208475507996" y1="142.92168965132927" y2="145.44649492493687" /><path d="M 25.769776987707644 143.4266507060508 a86.0,86.0 0 0,1 -11.730757126820373,-40.83630448921669" fill="none" id="id21" stroke="none" /><text fill="#e1ed5e" style="font-size:6.75px; font-family:Arial;" text-anchor="middle"><textPath startOffset="21.46611528233685" xlink:href="#id21">September</textPath></text><path d="M 81.51974371655577 109.97397251340807 l -13.345193148141476 7.202529424060431 a36.16478190630048,36.16478190630048 0 0,0 -0.29094996160302333,-0.5503676799970751 l 13.467195617969386 -6.97174672897723" fill="#ff740a" stroke="none" /><path d="M 80.87730276802145 108.67885076344099 l -24.951947425844995 11.324460422036838 a48.4015160929539,48.4015160929539 0 0,0 -0.33779398552118206,-0.7616362623424842 l 25.14318249609746 -10.893275823201657" fill="#dcff1b" stroke="none" /><path d="M 80.0844068197444 106.66101706037122 l -19.63840336589142 6.568307490250488 a41.70771716167516,41.70771716167516 0 0,0 -0.22186072378007998,-0.6828170971237414 l 19.74855634068775 -6.229291493148944" fill="#ffc612" stroke="none" /><path d="M 79.35854240842038 103.8639653848113 l -14.767350733779535 2.764365443066812 a36.023859823536725,36.023859823536725 0 0,0 -0.10884962221322718,-0.610486487495802 l 14.812746798331952 -2.509760204837796" fill="#ff720a" stroke="none" /><path d="M 79.0235259727143 100.99374915477108 l -9.556325808876522 0.45272578618003906 a30.567043618739902,30.567043618739902 0 0,0 -0.020374924557460455,-0.5257862688859272 l 9.562702866285184 -0.28816227028011515" fill="#ff1c02" stroke="none" /><line stroke="#e1ed5e" stroke-width="0.3" x1="15.007084014347285" x2="10.007500721073583" y1="101.09737516637583" y2="101.16192664675087" /><path d="M 14.007167355692545 101.11028546245083 a86.0,86.0 0 0,1 10.666146001902534,-42.60595125391555" fill="none" id="id22" stroke="none" /><text fill="#e1ed5e" style="font-size:6.75px; font-family:Arial;" text-anchor="middle"><textPath startOffset="22.20632615414155" xlink:href="#id22">October</textPath></text><path d="M 79.05617556472873 98.46500227214037 l -7.886142418152344 -0.57798472914312 a28.907294643966694,28.907294643966694 0 0,0 0.04064299027357162,-0.4959474262569204 l 7.875024944059276 0.7136460726078188" fill="#ff0100" stroke="none" /><path d="M 79.26566170972629 96.67025291283419 l -15.382627015401276 -2.470310688502534 a36.579719149993785,36.579719149993785 0 0,0 0.10518957836100831,-0.620834845927307 l 15.337825575520046 2.734731322745669" fill="#ff7a0b" stroke="none" /><path d="M 79.32604984820605 96.31383870115002 l -11.661371907418008 -2.07922034739407 a32.84528395675407,32.84528395675407 0 0,0 0.10403239454088253,-0.5557452115143607 l 11.623853788967265 2.279643636371003" fill="#ff4106" stroke="none" /><path d="M 79.62865764111835 94.90015583598534 l -28.039392067475223 -7.019494713635676 a49.90468497576737,49.90468497576737 0 0,0 0.21578706917411614,-0.8315156026132816 l 27.914408666430802 7.501106741797821" fill="#c8ff1d" stroke="none" /><path d="M 79.81627453868168 94.20196356495316 l -13.341274478532632 -3.8324538086260924 a34.88082515223064,34.88082515223064 0 0,0 0.17074014902509319,-0.575650903037872 l 13.273328432395832 4.061534098410504" fill="#ff6008" stroke="none" /><path d="M 80.02781315780177 93.51064311812611 l -15.718138346171415 -5.107132736784809 a37.527028706350194,37.527028706350194 0 0,0 0.20490241277021412,-0.6126321337115704 l 15.627898639629429 5.376937973418702" fill="#ff890c" stroke="none" /><path d="M 80.52162464483688 92.15188598940014 l -7.334345386621631 -2.9551118991074374 a28.907294643966694,28.907294643966694 0 0,0 0.18993236912657382,-0.4599362971403841 l 7.282391330608855 3.080922766701133" fill="#ff0100" stroke="none" /><path d="M 80.95270993114464 91.15688171328213 l -14.933435198758353 -6.933171774686598 a37.4643966695663,37.4643966695663 0 0,0 0.27659751077517275,-0.5825848988523077 l 14.811879494141428 7.189199089179438" fill="#ff880c" stroke="none" /><path d="M 81.26839172434947 90.50648371742162 l -12.318587174691512 -6.243281740698992 a34.81036411084877,34.81036411084877 0 0,0 0.2754835306421324,-0.5321464965539189 l 12.209294210889265 6.454400959513246" fill="#ff5f08" stroke="none" /><line stroke="#e1ed5e" stroke-width="0.3" x1="26.266209847984243" x2="21.928928074336255" y1="57.711370442889674" y2="55.22380399835377" /><path d="M 25.398753493254645 57.213857153982495 a86.0,86.0 0 0,1 29.58750427330803,-30.492523968695096" fill="none" id="id23" stroke="none" /><text fill="#e1ed5e" style="font-size:6.75px; font-family:Arial;" text-anchor="middle"><textPath startOffset="21.46611528233685" xlink:href="#id23">November</textPath></text><path d="M 82.15384107792192 88.93136811851018 l -7.784269642909663 -4.827997751215268 a30.159935379644587,30.159935379644587 0 0,0 0.277431772112018,-0.4388304380970313 l 7.7000102745516825 4.961275837026514" fill="#ff1602" stroke="none" /><path d="M 83.39014120810768 87.1503855733568 l -6.210894135057042 -4.80483283332539 a28.85249161178079,28.85249161178079 0 0,0 0.30727342922245016,-0.39020605100722067 l 6.12726662524062 4.911031278285659" fill="#ff0000" stroke="none" /><path d="M 84.31358615837235 86.03803664274999 l -11.082050787828162 -9.863770558713354 a35.83596371318504,35.83596371318504 0 0,0 0.41408688045985714,-0.4572450758312982 l 10.910620266752261 10.053068421814208" fill="#ff6f0a" stroke="none" /><path d="M 85.31137513191541 84.99185889309783 l -12.189715032815815 -12.454873407716256 a38.427364235118674,38.427364235118674 0 0,0 0.47671296605032976,-0.45859749564123287 l 11.973518823153057 12.662853990119798" fill="#ff960d" stroke="none" /><path d="M 86.65592168130627 83.78471172551755 l -12.063895833042983 -14.65965231724367 a39.98533615011806,39.98533615011806 0 0,0 0.5352258142406765,-0.4327820526555112 l 11.809766620237806 14.865140467163318" fill="#ffad10" stroke="none" /><path d="M 88.39885842347998 82.49532879139004 l -17.131398701850067 -25.84913731476478 a52.010687212625825,52.010687212625825 0 0,0 0.7505215827164357,-0.4881601145147841 l 16.683910093349343 26.140196353439098" fill="#adff20" stroke="none" /><line stroke="#e1ed5e" stroke-width="0.3" x1="56.76296977257108" x2="54.21961505331056" y1="26.818313649435495" y2="22.513508569990535" /><path d="M 56.25429882871898 25.957352633546506 a86.0,86.0 0 0,1 42.26535254187918,-11.944610805530505" fill="none" id="id24" stroke="none" /><text fill="#e1ed5e" style="font-size:6.75px; font-family:Arial;" text-anchor="middle"><textPath startOffset="22.20632615414155" xlink:href="#id24">December</textPath></text><path d="M 90.58718382345135 81.22770947309562 l -3.6074468856065622 -7.194450600841698 a29.04821672673046,29.04821672673046 0 0,0 0.44890385571106606,-0.2202751724293788 l 3.48307176288507 7.255480933405906" fill="#ff0300" stroke="none" /><path d="M 90.91171255644093 81.06846463323043 l -4.011631291104983 -8.356507222911082 a30.269541444016404,30.269541444016404 0 0,0 0.4716596902119848,-0.22145054882049858 l 3.8671933895933903 8.42432275437159" fill="#ff1702" stroke="none" /><path d="M 91.56875222667455 80.76684994638697 l -12.494423971281966 -28.501965252806677 a52.12029327699764,52.12029327699764 0 0,0 0.8247819049847104,-0.3531285681032975 l 12.001958308506948 28.71281334887276" fill="#acff21" stroke="none" /><path d="M 92.23578459929587 80.48803036053334 l -3.131930308274591 -7.870741077383967 a29.470982975021748,29.470982975021748 0 0,0 0.47296273364715485,-0.18350219273816357 l 2.9959844096277592 7.923485974012682" fill="#ff0a01" stroke="none" /><path d="M 92.57280143429618 80.3572730644239 l -4.4247533147737155 -11.70215396161947 a33.51074934758295,33.51074934758295 0 0,0 0.5413065931097845,-0.19936778651659182 l 4.222664395891361 11.776585015942384" fill="#ff4b07" stroke="none" /><path d="M 94.63758080256005 79.69619591428918 l -2.0011612836972996 -7.5770254342474965 a28.836833602584814,28.836833602584814 0 0,0 0.4810136423550089,-0.12262108765180338 l 1.8704387526572914 7.610349518068163" fill="#ff0000" stroke="none" /><path d="M 94.98787191387505 79.60689891045804 l -4.626579771807646 -18.82440100573104 a40.38461538461539,40.38461538461539 0 0,0 0.6764929096874346,-0.16010401511370967 l 4.301863175157678 18.901250932985622" fill="#ffb310" stroke="none" /><path d="M 97.83486435360386 79.11191278185805 l -0.970234763378215 -9.360313471929892 a30.410463526780166,30.410463526780166 0 0,0 0.5211410331822388,-0.049488620574698786 l 0.8089686031057398 9.375627637019772" fill="#ff1a02" stroke="none" /><path d="M 98.55514903715128 79.0497635885617 l -0.6366896376614319 -9.231954556351463 a30.25388343482043,30.25388343482043 0 0,0 0.519845205393594,-0.031358482425016494 l 0.477682383428215 9.241546308156785" fill="#ff1702" stroke="none" /></svg>